<?xml version="1.0" standalone="no"?>
<!DOCTYPE svg PUBLIC "-//W3C//DTD SVG 1.1//EN" "http://www.w3.org/Graphics/SVG/1.1/DTD/svg11.dtd" >
<svg xmlns="http://www.w3.org/2000/svg" xmlns:xlink="http://www.w3.org/1999/xlink" version="1.1">
<metadata>
Created by FontForge 20161013 at Fri Jan  1 02:30:17 1904
 By ,,,
</metadata>
<defs>
<font id="TheSansSemiBold-Plain" horiz-adv-x="1442" >
  <font-face 
    font-family="TheSansSemiBold-Plain"
    font-weight="400"
    font-stretch="normal"
    units-per-em="2048"
    panose-1="2 11 5 0 0 0 0 0 0 0"
    ascent="1638"
    descent="-410"
    x-height="1018"
    cap-height="1382"
    bbox="-123 -524 2097 1833"
    underline-thickness="41"
    underline-position="-367"
    unicode-range="U+0020-F002"
  />
<missing-glyph horiz-adv-x="748" 
d="M68 0v1365h544v-1365h-544zM136 68h408v1229h-408v-1229z" />
    <glyph glyph-name=".notdef" horiz-adv-x="748" 
d="M68 0v1365h544v-1365h-544zM136 68h408v1229h-408v-1229z" />
    <glyph glyph-name="glyph1" horiz-adv-x="0" 
 />
    <glyph glyph-name="nonmarkingreturn" horiz-adv-x="682" 
 />
    <glyph glyph-name="equal" unicode=" " horiz-adv-x="446" 
 />
    <glyph glyph-name="greater" unicode="!" horiz-adv-x="620" 
d="M438 1456h-258l37 -1094h186zM309 252q-59 -2 -98 -37q-43 -39 -43 -98q0 -60 43 -97q39 -38 98 -40q60 2 101 40q38 37 38 97q0 59 -38 98q-41 35 -101 37v0z" />
    <glyph glyph-name="question" unicode="&#x22;" horiz-adv-x="784" 
d="M324 1524h-226l33 -494h162zM686 1524h-225l30 -494h164z" />
    <glyph glyph-name="at" unicode="#" horiz-adv-x="1407" 
d="M1290 377v160h-278l37 346h298v159h-280l35 340h-189l-37 -340h-276l35 340h-187l-36 -340h-295v-159h278l-37 -346h-301v-160h285l-41 -377h188l41 377h277l-39 -377h188l39 377h295zM823 537h-276l37 346h276z" />
    <glyph glyph-name="A" unicode="$" horiz-adv-x="1005" 
d="M903 371q0 80 -22 137q-25 55 -66 94t-90 70q-49 28 -107 49q-53 24 -102 45q-53 18 -94 43q-41 24 -64 57q-26 31 -26 74q0 68 53 113q51 45 176 47q109 0 229 -35l17 190q-98 23 -213 25v201h-160v-211q-147 -27 -235 -121q-90 -94 -90 -232q0 -75 26 -131
q23 -57 64 -98q41 -39 90 -65q49 -31 102 -52q57 -20 107 -41q49 -20 90 -45q84 -47 86 -139q-2 -94 -68 -137q-69 -43 -178 -43q-133 0 -264 43l-12 -201q112 -24 249 -28v-248h160v258q336 84 342 381v0z" />
    <glyph glyph-name="B" unicode="%" horiz-adv-x="1649" 
d="M745 1089q-2 179 -94 256q-92 74 -231 74q-137 0 -234 -92q-102 -92 -104 -266q2 -168 92 -252q86 -82 225 -82q144 0 242 98q102 94 104 264v0zM557 1077q-4 -192 -147 -194q-140 -2 -140 192q0 90 43 139q41 50 101 50q73 0 110 -41q33 -45 33 -146v0zM399 -51
l983 1370l-155 114v0l-985 -1370l157 -114v0zM1550 326q-2 178 -94 256q-92 73 -231 73q-138 0 -234 -92q-102 -92 -104 -266q2 -168 92 -252q86 -82 225 -82q143 2 242 98q102 95 104 265v0zM1362 313q-4 -192 -148 -194q-139 -2 -139 192q0 90 43 140q41 49 100 49
q72 0 109 -41q35 -45 35 -146v0z" />
    <glyph glyph-name="C" unicode="&#x26;" horiz-adv-x="1630" 
d="M1384 -45l144 168q-121 84 -275 203q193 258 187 604h-217q6 -287 -131 -486v2q-236 193 -418 379q254 199 250 402q0 131 -86 211q-88 77 -258 79q-185 -2 -283 -96q-100 -92 -100 -229q-2 -84 43 -168q41 -86 141 -203q-125 -94 -197 -196q-78 -107 -78 -244
q0 -170 115 -285q113 -116 342 -119q334 7 537 191v0q129 -102 284 -213v0zM709 1208q-2 -137 -160 -258v0q-72 88 -103 148q-32 59 -32 104q0 68 43 109q41 39 106 39q76 0 113 -39q33 -41 33 -103v0zM942 289q-61 -51 -145 -86q-86 -39 -197 -39q-125 2 -195 74
q-73 71 -73 172q-4 135 176 280v0q178 -190 434 -401v0z" />
    <glyph glyph-name="D" unicode="'" horiz-adv-x="424" 
d="M324 1524h-226l33 -494h162z" />
    <glyph glyph-name="E" unicode="(" horiz-adv-x="623" 
d="M616 -395q-274 442 -274 987q2 534 268 977h-202q-287 -510 -281 -987q-10 -467 278 -977h211z" />
    <glyph glyph-name="F" unicode=")" horiz-adv-x="623" 
d="M504 586q6 473 -277 983h-209q271 -443 273 -979q0 -545 -273 -985h207q287 510 279 981v0z" />
    <glyph glyph-name="G" unicode="*" horiz-adv-x="774" 
d="M614 954l80 140l-209 88l209 88l-78 135v0l-180 -135v0l27 225h-160l29 -225v0l-180 135v0l-80 -137l209 -88l-209 -88l77 -138v0l181 138v0l-27 -226h160l-29 226v0l180 -138v0z" />
    <glyph glyph-name="H" unicode="+" horiz-adv-x="1155" 
d="M1102 436v182h-422v435h-207v-435h-420v-182h420v-436h207v436h422z" />
    <glyph glyph-name="I" unicode="," horiz-adv-x="496" 
d="M145 -334v0q131 119 189 228q57 104 55 188q2 84 -39 135q-41 47 -106 47q-90 -4 -119 -76q-31 -69 16 -137q43 -47 29 -121q-16 -71 -117 -182z" />
    <glyph glyph-name="J" unicode="-" horiz-adv-x="680" 
d="M586 428v176h-492v-176h492z" />
    <glyph glyph-name="K" unicode="." horiz-adv-x="496" 
d="M248 268q-60 -2 -103 -41q-43 -41 -43 -102q0 -59 43 -102q43 -41 103 -43q63 2 104 43q39 43 41 102q-2 61 -41 102q-41 39 -104 41v0z" />
    <glyph glyph-name="L" unicode="/" horiz-adv-x="862" 
d="M809 1382h-213l-528 -1382h215z" />
    <glyph glyph-name="M" unicode="0" horiz-adv-x="1251" 
d="M1155 541q0 221 -119 374q-123 154 -397 158q-221 -2 -377 -147q-162 -146 -166 -410q2 -283 150 -410q141 -126 358 -126q232 2 389 151q158 148 162 410v0zM936 530q-2 -170 -92 -264q-90 -98 -221 -98q-158 2 -232 106q-76 103 -76 258q2 168 95 263q90 90 221 92
q153 -2 231 -101q74 -98 74 -256v0z" />
    <glyph glyph-name="N" unicode="1" horiz-adv-x="696" 
d="M524 0v1053h-174l-309 -117l37 -186v0l221 94v0v-844h225z" />
    <glyph glyph-name="O" unicode="2" horiz-adv-x="987" 
d="M891 0v195q-318 0 -494 -9l2 4l189 150q258 192 260 407q-2 314 -393 324q-193 -2 -332 -74l31 -188v0q47 31 114 53q66 23 137 23q99 -2 152 -49q49 -48 49 -129q0 -78 -63 -152q-68 -74 -201 -180l-240 -199v-176h789z" />
    <glyph glyph-name="P" unicode="3" horiz-adv-x="942" 
d="M842 74q0 129 -70 219q-72 88 -201 112v3q109 47 174 133q64 84 64 198q0 140 -96 232q-99 94 -308 96q-159 0 -299 -59l21 -185v0q109 60 235 62q213 -4 218 -185q-5 -247 -426 -245v-176q204 22 327 -33q121 -58 123 -199q0 -113 -80 -182q-80 -70 -237 -72
q-109 2 -183 27l-22 -193q90 -22 190 -22q277 4 422 139q146 131 148 330v0z" />
    <glyph glyph-name="Q" unicode="4" horiz-adv-x="1124" 
d="M1094 0v197h-234v860h-278l-549 -879l35 -178h577v-385h215v385h234zM649 197q-176 0 -405 -2l403 647h2v-645z" />
    <glyph glyph-name="R" unicode="5" horiz-adv-x="954" 
d="M858 100q-2 189 -129 301q-131 115 -375 117v322l463 -2v215h-670v-721q56 4 115 4q180 -2 272 -74q91 -74 91 -192q0 -117 -86 -191q-86 -78 -265 -80q-84 2 -147 15l-23 -199q76 -10 156 -10q266 2 430 141q166 135 168 354v0z" />
    <glyph glyph-name="S" unicode="6" horiz-adv-x="1192" 
d="M1102 471q-8 426 -426 436q-223 -4 -322 -147l-2 2q10 45 17 74q41 192 159 305q117 110 316 112q61 0 123 -10v195q-54 4 -105 4q-719 -4 -739 -875q8 -581 469 -587q231 2 370 139q138 133 140 352v0zM868 444q0 -122 -65 -198q-66 -78 -185 -80q-124 2 -186 90
q-63 84 -63 205q0 102 65 178q66 76 191 78q239 -4 243 -273v0z" />
    <glyph glyph-name="T" unicode="7" horiz-adv-x="940" 
d="M885 868v185h-838v-215q385 0 592 6q-234 -539 -403 -1229h245q160 704 404 1253v0z" />
    <glyph glyph-name="U" unicode="8" horiz-adv-x="1132" 
d="M1028 373q-2 141 -86 231q-84 88 -195 148q129 81 193 170q61 83 61 192q-8 328 -426 338q-202 -2 -325 -102q-125 -103 -127 -275q0 -113 67 -199q64 -86 181 -155h2q-99 -60 -181 -150q-86 -90 -88 -231q0 -160 115 -258q113 -100 326 -102q202 0 340 102
q139 100 143 291v0zM774 1092q2 -132 -199 -252l-2 2q-104 57 -161 114q-60 58 -60 131q0 82 58 134q53 51 155 51q105 -2 158 -54q51 -51 51 -126v0zM797 352q-2 -90 -66 -139q-63 -51 -164 -51q-227 4 -231 203q0 83 61 147q58 63 148 117h2q117 -56 182 -119
q66 -66 68 -158v0z" />
    <glyph glyph-name="V" unicode="9" horiz-adv-x="1192" 
d="M1069 473q-16 602 -479 596q-225 -2 -361 -139q-137 -140 -139 -359q6 -422 418 -432q213 2 311 140l2 -3q-8 -47 -16 -92q-86 -385 -481 -387q-31 0 -70 6q-37 7 -70 15v-203q72 -10 129 -10q748 10 756 868v0zM819 582q0 -101 -65 -172q-68 -76 -187 -78
q-243 2 -245 274q0 119 69 199q66 76 180 78q123 -2 187 -84q61 -82 61 -217v0z" />
    <glyph glyph-name="W" unicode=":" horiz-adv-x="543" 
d="M270 860q-59 -2 -100 -41q-43 -41 -43 -104q0 -60 43 -103q41 -43 100 -43q64 0 105 43q39 43 41 103q-2 63 -41 104q-41 39 -105 41v0zM270 268q-59 -2 -100 -41q-43 -41 -43 -102q0 -59 43 -102q41 -41 100 -43q64 2 105 43q39 43 41 102q-2 61 -41 102q-41 39 -105 41
v0z" />
    <glyph glyph-name="X" unicode=";" horiz-adv-x="543" 
d="M416 715q-2 63 -41 104q-41 39 -105 41q-59 -2 -100 -41q-43 -41 -43 -104q0 -60 43 -103q41 -43 100 -43q64 0 105 43q39 43 41 103v0zM270 264q-90 -4 -118 -76q-15 -32 -13 -67q2 -37 27 -70q45 -47 31 -121q-17 -71 -117 -182l92 -82v0q131 119 188 228
q58 104 56 188q2 84 -39 135q-41 47 -107 47v0z" />
    <glyph glyph-name="Y" unicode="&#x3c;" horiz-adv-x="1028" 
d="M756 1110l-650 -600l650 -590v0l143 150l-512 442l510 455l-141 143v0z" />
    <glyph glyph-name="Z" unicode="=" horiz-adv-x="1186" 
d="M1049 614v179h-910v-179h910zM1049 246v178h-910v-178h910z" />
    <glyph glyph-name="bracketleft" unicode="&#x3e;" horiz-adv-x="1028" 
d="M272 -78l650 600l-650 590v0l-143 -150l512 -442l-510 -454l141 -144v0z" />
    <glyph glyph-name="backslash" unicode="?" horiz-adv-x="872" 
d="M762 1057q0 161 -154 276q-153 117 -450 133l-27 -198q180 -11 285 -72q104 -64 106 -164q-2 -76 -61 -135q-29 -31 -60 -61q-32 -31 -67 -68q-68 -66 -98 -162q-35 -96 14 -244h213q-21 68 -17 121q0 51 17 94q18 43 47 78t61 68q35 33 70 70q31 32 59 71q60 76 62 193
v0zM504 117q0 59 -39 98q-41 35 -100 37q-60 -2 -99 -37q-43 -39 -43 -98q0 -60 43 -97q39 -38 99 -40q59 2 100 40q39 37 39 97v0z" />
    <glyph glyph-name="bracketright" unicode="@" horiz-adv-x="1685" 
d="M1558 819q0 250 -168 418q-167 170 -483 174q-332 -2 -553 -219q-229 -215 -233 -567q0 -299 182 -480q178 -182 508 -184q184 2 336 49v166v0q-154 -51 -309 -49q-261 2 -394 143q-133 140 -133 371q2 274 172 438q166 166 414 168q250 -4 364 -131q109 -129 109 -307
q0 -164 -53 -236q-53 -75 -146 -73q-61 -2 -84 43q-24 41 -6 143l64 348q-45 12 -105 23q-59 6 -123 6q-208 -4 -313 -137q-108 -133 -108 -336q-2 -244 186 -246q96 2 164 59q69 56 98 123h6q-6 -73 39 -125q45 -57 152 -57q188 0 301 119q114 117 116 356v0zM960 917
l-14 -77q-31 -158 -88 -248q-57 -92 -127 -92q-67 -2 -65 123q0 102 51 200q24 47 65 76q37 29 88 29q54 0 90 -11v0z" />
    <glyph glyph-name="asciicircum" unicode="A" horiz-adv-x="1270" 
d="M1257 0l-501 1382h-248l-496 -1382h226l106 305h559l107 -305h247zM844 483h-443l156 428q41 113 63 219h5q22 -108 61 -213z" />
    <glyph glyph-name="underscore" unicode="B" horiz-adv-x="1175" 
d="M1079 418q0 110 -63 200q-66 86 -201 115v4q109 39 172 125q64 84 64 191q-2 331 -457 335q-262 -2 -434 -6v-1382q241 -4 377 -6q159 2 266 43q104 39 166 102q61 66 88 140q22 71 22 139v0zM817 1018q-2 -219 -315 -223q-68 0 -119 2v409q82 4 174 4q145 0 205 -51
q57 -53 55 -141v0zM844 414q0 -232 -299 -238q-109 0 -162 10v441q70 2 125 2q149 0 242 -47q92 -50 94 -168v0z" />
    <glyph glyph-name="grave" unicode="C" horiz-adv-x="1178" 
d="M1087 49l-26 199v0q-131 -62 -291 -64q-442 4 -438 504q0 223 102 365q105 143 318 145q149 0 299 -47l24 205q-147 37 -305 39q-346 -5 -514 -209q-168 -205 -168 -535q-2 -282 143 -471q148 -192 490 -196q205 2 366 65v0z" />
    <glyph glyph-name="a" unicode="D" horiz-adv-x="1378" 
d="M1292 711q-12 688 -704 677q-252 -2 -428 -8v-1380q159 -6 366 -8q344 0 553 182q211 180 213 537v0zM1055 694q-2 -262 -140 -387q-139 -125 -366 -125q-88 0 -166 10v1006q80 6 188 6q490 -4 484 -510v0z" />
    <glyph glyph-name="b" unicode="E" horiz-adv-x="1020" 
d="M889 0v190h-506v430h481v183h-481v393h506v186h-729v-1382h729z" />
    <glyph glyph-name="c" unicode="F" horiz-adv-x="956" 
d="M881 1194v188h-721v-1382h223v606h471v182h-471v406h498z" />
    <glyph glyph-name="d" unicode="G" horiz-adv-x="1390" 
d="M1192 1135l35 206q-183 60 -385 60q-357 -4 -557 -209q-201 -203 -203 -531q12 -669 692 -681q248 2 463 83v650h-223v-502q-95 -33 -213 -33q-471 6 -479 506q2 258 147 391q141 131 354 131q195 -2 369 -71v0z" />
    <glyph glyph-name="e" unicode="H" horiz-adv-x="1419" 
d="M1257 0v1382h-221v-571h-653v571h-223v-1382h223v620h653v-620h221z" />
    <glyph glyph-name="f" unicode="I" horiz-adv-x="545" 
d="M383 0v1382h-223v-1382h223z" />
    <glyph glyph-name="g" unicode="J" horiz-adv-x="680" 
d="M520 373v1009h-223v-999q0 -61 -8 -100q-13 -41 -33 -66q-41 -47 -121 -45q-78 0 -133 23v-195q64 -14 160 -16q196 2 280 110q78 105 78 279v0z" />
    <glyph glyph-name="h" unicode="K" horiz-adv-x="1208" 
d="M1182 0l-570 715l549 667h-274l-504 -641v0v641h-223v-1382h223v676v0l502 -676h297z" />
    <glyph glyph-name="i" unicode="L" horiz-adv-x="874" 
d="M858 0v195h-475v1187h-223v-1382h698z" />
    <glyph glyph-name="j" unicode="M" horiz-adv-x="1814" 
d="M1730 0l-210 1382h-269l-272 -807q-47 -137 -76 -274h-4q-25 133 -76 283l-266 798h-266l-207 -1382h227l88 715q23 188 37 358h4q29 -158 88 -328l248 -745h232l260 803q49 153 71 270h4q13 -125 43 -338l109 -735h235z" />
    <glyph glyph-name="k" unicode="N" 
d="M1280 0v1382h-217v-409q0 -363 14 -658v0q-76 156 -168 314l-456 753h-293v-1382h217v465q0 352 -12 612v0q63 -139 153 -291l473 -786h289z" />
    <glyph glyph-name="l" unicode="O" 
d="M1364 709q-17 694 -623 694q-280 -2 -467 -191q-192 -190 -196 -536q-2 -680 622 -696q283 2 471 192q189 190 193 537v0zM1126 686q-4 -258 -127 -383t-282 -125q-203 2 -301 146q-101 141 -101 378q2 250 125 377q117 127 281 127q401 -6 405 -520v0z" />
    <glyph glyph-name="m" unicode="P" horiz-adv-x="1079" 
d="M1022 975q-4 407 -508 415q-195 0 -354 -8v-1382h223v510q55 -4 102 -4q246 2 391 135q144 131 146 334v0zM790 956q-2 -120 -83 -190q-82 -72 -226 -76q-51 0 -98 8v506q53 4 115 4q295 -4 292 -252v0z" />
    <glyph glyph-name="n" unicode="Q" horiz-adv-x="1440" 
d="M1364 709q-17 694 -623 694q-280 -2 -467 -191q-192 -190 -196 -536q-2 -680 622 -696q283 2 471 192q189 190 193 537v0zM1438 -395v196v0q-121 -14 -215 0q-95 11 -179 31q-84 21 -180 35q-96 10 -225 -4v-199v0q113 15 203 2q88 -14 172 -37q88 -20 190 -30
q100 -11 234 6v0zM1126 686q-4 -258 -127 -383t-282 -125q-203 2 -301 146q-101 141 -101 378q2 250 125 377q117 127 281 127q401 -6 405 -520v0z" />
    <glyph glyph-name="o" unicode="R" horiz-adv-x="1145" 
d="M1104 0l-365 481q-55 72 -116 148q172 20 280 121q109 100 111 266q-2 205 -133 291q-131 83 -351 83q-227 0 -370 -8v-1382h223v598h10l430 -598h281zM780 991q-4 -223 -289 -229q-36 0 -63 4h-45v438q51 4 117 4q280 2 280 -217v0z" />
    <glyph glyph-name="p" unicode="S" horiz-adv-x="1030" 
d="M934 418q0 84 -25 141q-24 59 -67 98q-90 80 -209 123q-56 25 -109 49q-55 21 -98 47q-43 27 -68 64q-28 35 -28 84q0 188 260 194q61 0 127 -8q65 -12 123 -30l12 198q-127 23 -250 25q-502 -13 -508 -404q2 -161 96 -241q43 -39 99 -70q53 -29 108 -53q60 -21 113 -43
q53 -21 96 -49q43 -27 68 -64q24 -39 24 -94q-2 -111 -80 -162q-77 -51 -194 -51q-160 2 -287 51l-12 -211q125 -30 278 -32q252 2 392 124q137 121 139 314v0z" />
    <glyph glyph-name="q" unicode="T" horiz-adv-x="1053" 
d="M1018 1194v188h-983v-188h379v-1194h223v1194h381z" />
    <glyph glyph-name="r" unicode="U" horiz-adv-x="1407" 
d="M1247 532v850h-219v-866q2 -360 -328 -352q-186 0 -254 94q-65 88 -63 229v895h-223v-911q0 -96 22 -182q23 -90 80 -158t160 -108q102 -41 264 -43q557 0 561 552v0z" />
    <glyph glyph-name="s" unicode="V" horiz-adv-x="1274" 
d="M1257 1382h-229l-297 -837q-57 -160 -90 -295h-2q-43 158 -88 280l-291 852h-246l492 -1382h254z" />
    <glyph glyph-name="t" unicode="W" horiz-adv-x="1950" 
d="M1888 1382h-223l-215 -864q-29 -113 -49 -242h-2q-4 35 -11 68q-6 35 -14 66q-14 65 -31 120l-241 852h-244l-235 -850q-35 -127 -56 -262h-2q-16 138 -53 273l-213 839h-238l359 -1382h262l233 858q35 129 50 256h2q18 -133 53 -260l235 -854h275z" />
    <glyph glyph-name="u" unicode="X" horiz-adv-x="1253" 
d="M1225 0l-463 715l413 667h-251l-304 -506v0l-307 506h-258l422 -671l-448 -711h262l325 543v0l328 -543h281z" />
    <glyph glyph-name="v" unicode="Y" horiz-adv-x="1122" 
d="M1108 1382h-236l-194 -411q-66 -133 -115 -258h-4q-43 110 -98 233l-205 436h-244l432 -888v-494h224v494z" />
    <glyph glyph-name="w" unicode="Z" horiz-adv-x="1102" 
d="M1012 0v205h-330q-266 0 -324 -4q39 55 72 110l573 895v176h-890v-198h346q202 0 280 2q-53 -72 -102 -150l-545 -866v-170h920z" />
    <glyph glyph-name="x" unicode="[" horiz-adv-x="664" 
d="M588 -412v174h-221v1651h221v172h-426v-1997h426z" />
    <glyph glyph-name="y" unicode="\" horiz-adv-x="842" 
d="M793 0l-539 1382h-203l533 -1382h209z" />
    <glyph glyph-name="z" unicode="]" horiz-adv-x="664" 
d="M502 -412v1997h-426v-172h221v-1651h-221v-174h426z" />
    <glyph glyph-name="braceleft" unicode="^" horiz-adv-x="1096" 
d="M817 696l160 82l-352 604h-172l-338 -608l149 -78v0l270 527v0l283 -527v0z" />
    <glyph glyph-name="bar" unicode="_" horiz-adv-x="1024" 
d="M1024 -516v174h-1024v-174h1024z" />
    <glyph glyph-name="braceright" unicode="`" horiz-adv-x="760" 
d="M522 1165l84 125l-321 227v0l-101 -153l338 -199v0z" />
    <glyph glyph-name="asciitilde" unicode="a" horiz-adv-x="1071" 
d="M913 0q-6 137 -6 279v415q2 158 -80 252q-88 90 -317 92q-203 -2 -358 -67l20 -187v0q145 82 303 82q119 0 168 -47q45 -49 45 -145v-66q-276 0 -436 -96q-162 -96 -164 -272q6 -256 285 -260q123 2 213 61q88 57 125 149l2 -2q-11 -86 -11 -188h211zM688 440
q-2 -112 -68 -196q-65 -90 -182 -92q-65 0 -100 34q-39 35 -39 90q-2 72 76 127q43 29 119 43q75 15 194 15v-21z" />
    <glyph glyph-name="Adieresis" unicode="b" horiz-adv-x="1143" 
d="M1063 559q-4 475 -375 479q-233 -4 -323 -207h-5q19 93 19 195v469h-219v-1468q157 -43 362 -43q533 12 541 575v0zM831 539q-2 -203 -79 -293q-78 -90 -213 -88q-95 0 -160 20v316q0 137 65 247q64 111 187 115q200 -2 200 -317v0z" />
    <glyph glyph-name="Aring" unicode="c" horiz-adv-x="883" 
d="M817 35l-18 186q-97 -49 -222 -49q-149 2 -208 96q-64 90 -62 232q0 164 72 258t209 94q112 -2 205 -39l22 190q-104 31 -221 31q-260 -2 -387 -155q-129 -156 -129 -404q2 -266 129 -381q123 -110 323 -110q88 0 162 16q76 16 125 35v0z" />
    <glyph glyph-name="Ccedilla" unicode="d" horiz-adv-x="1141" 
d="M981 0v1495h-217v-469q-82 8 -154 8q-524 -12 -532 -575q0 -469 375 -479q243 6 331 210h4q-14 -98 -14 -190h207zM764 526q0 -135 -64 -247q-30 -54 -77 -84q-50 -35 -111 -35q-205 2 -203 319q0 205 82 295q80 86 211 86q80 0 162 -18v-316z" />
    <glyph glyph-name="Eacute" unicode="e" horiz-adv-x="1046" 
d="M958 598q0 186 -98 311q-100 127 -317 129q-224 -2 -342 -151q-123 -150 -123 -385q4 -527 491 -522q193 0 353 65l-21 174v0q-133 -65 -297 -65q-307 -5 -301 342h649q6 59 6 102v0zM739 649h-432q17 107 76 166t151 61q203 -4 205 -227v0z" />
    <glyph glyph-name="Ntilde" unicode="f" horiz-adv-x="721" 
d="M774 1491q-80 18 -166 18q-397 0 -397 -413v-78h-195v-170h195v-848h217v848h264v170h-264v82q-2 233 190 231q70 0 140 -20z" />
    <glyph glyph-name="Odieresis" unicode="g" horiz-adv-x="1139" 
d="M1059 -133q-4 293 -346 295h-174q-91 0 -129 18q-39 17 -39 53q0 48 59 76q53 -10 117 -10q215 0 329 106q111 103 111 271q-2 114 -70 170h156v172h-344q-80 20 -168 20q-219 -2 -336 -116q-119 -111 -119 -279q0 -197 152 -287q-53 -22 -84 -69q-33 -47 -33 -105
q2 -102 101 -151q-68 -35 -113 -101q-51 -67 -51 -155q0 -148 119 -221q112 -78 313 -78q250 2 397 116q150 109 152 275v0zM776 661q-6 -206 -227 -208q-227 2 -230 211q0 96 64 155q59 57 168 57q221 -4 225 -215v0zM842 -162q-4 -184 -297 -192q-113 2 -178 45
q-72 45 -72 125q2 108 113 170q26 -2 55 -2h190q189 -2 189 -146v0z" />
    <glyph glyph-name="Udieresis" unicode="h" horiz-adv-x="1173" 
d="M1014 0v713q2 139 -64 231q-67 92 -239 94q-252 -6 -346 -211l-5 2q19 97 19 205v461h-219v-1495h219v489q0 158 78 263q73 102 188 104q88 0 121 -51q31 -53 31 -150v-655h217z" />
    <glyph glyph-name="aacute" unicode="i" horiz-adv-x="539" 
d="M410 1307q0 59 -39 98q-41 39 -101 39q-59 0 -98 -39q-43 -39 -43 -98q0 -58 43 -97q39 -41 98 -41q60 0 101 41q39 39 39 97v0zM379 0v1018h-219v-1018h219z" />
    <glyph glyph-name="agrave" unicode="j" horiz-adv-x="549" 
d="M420 1307q0 59 -39 98q-41 39 -100 39q-60 0 -99 -39q-43 -39 -43 -98q0 -58 43 -97q39 -41 99 -41q59 0 100 41q39 39 39 97v0zM389 -96v1114h-217v-1135q0 -118 -31 -166q-35 -47 -123 -47q-65 0 -127 23l-14 -189q68 -18 141 -18q209 0 291 109q82 106 80 309v0z" />
    <glyph glyph-name="acircumflex" unicode="k" horiz-adv-x="1038" 
d="M1005 0l-405 553l377 465h-268l-330 -436v0v913h-219v-1495h219v516v0l348 -516h278z" />
    <glyph glyph-name="adieresis" unicode="l" horiz-adv-x="539" 
d="M379 0v1495h-219v-1495h219z" />
    <glyph glyph-name="atilde" unicode="m" horiz-adv-x="1788" 
d="M1628 0v702q-4 338 -303 336q-137 -2 -221 -71q-86 -70 -119 -148v0q-10 74 -72 146q-30 34 -82 55q-51 18 -129 18q-245 -4 -344 -221l-4 2q15 105 15 199h-209v-1018h219v487q2 164 80 265q73 102 180 104q90 -2 121 -59q26 -58 26 -146v-651h215v487q2 170 82 271
q78 96 181 98q88 0 118 -53q29 -58 29 -154v-649h217z" />
    <glyph glyph-name="aring" unicode="n" horiz-adv-x="1173" 
d="M1014 0v713q2 139 -64 231q-67 92 -239 94q-263 -6 -355 -221l-2 2q15 103 15 199h-209v-1018h219v491q0 158 78 261q73 102 188 104q88 0 121 -51q31 -53 31 -150v-655h217z" />
    <glyph glyph-name="ccedilla" unicode="o" horiz-adv-x="1124" 
d="M1046 528q-2 269 -129 391q-127 119 -335 119q-234 -2 -369 -153q-137 -154 -139 -389q10 -521 467 -516q231 4 366 157q137 154 139 391v0zM821 514q-2 -174 -76 -260q-73 -86 -184 -86q-260 2 -260 350q2 174 82 256q78 80 180 80q258 -4 258 -340v0z" />
    <glyph glyph-name="eacute" unicode="p" horiz-adv-x="1143" 
d="M1063 559q-4 475 -375 479q-237 -4 -330 -211h-4q13 97 13 191h-207v-1518h219v498q74 -12 153 -12q525 10 531 573v0zM831 539q-2 -203 -79 -293q-78 -90 -213 -88q-91 0 -160 20v313q0 140 65 250q64 113 187 117q200 -4 200 -319v0z" />
    <glyph glyph-name="egrave" unicode="q" horiz-adv-x="1143" 
d="M983 -500v1505q-160 29 -356 29q-539 -12 -545 -577q4 -475 377 -477q227 4 317 208l4 -2q-16 -102 -14 -188v-498h217zM766 530q0 -139 -66 -249q-65 -119 -188 -121q-203 2 -201 319q0 205 82 295q80 88 211 88q84 0 162 -18v-314z" />
    <glyph glyph-name="ecircumflex" unicode="r" horiz-adv-x="727" 
d="M680 823l10 215q-141 13 -223 -63q-82 -74 -115 -182h-4q21 129 21 225h-209v-1018h219v414q-2 460 301 409v0z" />
    <glyph glyph-name="edieresis" unicode="s" horiz-adv-x="862" 
d="M770 309q0 66 -16 111q-19 45 -52 76q-30 30 -71 51q-43 20 -86 35q-39 16 -80 30q-39 13 -74 31q-69 31 -72 100q0 125 181 127q102 0 198 -28l6 178q-96 16 -190 18q-207 -2 -311 -90q-109 -90 -109 -225q0 -64 21 -111q20 -45 51 -75q35 -31 74 -50q41 -20 79 -36
q43 -13 84 -25q39 -12 70 -31q66 -33 68 -106q-2 -62 -56 -97q-53 -38 -145 -38q-121 0 -221 32l-6 -186q98 -18 215 -20q206 2 325 94q115 92 117 235v0z" />
    <glyph glyph-name="iacute" unicode="t" horiz-adv-x="764" 
d="M688 4v180q-61 -16 -133 -16q-76 -2 -104 41q-29 41 -29 151v488h266v170h-268v383v0l-217 -60v-323h-195v-170h195v-555q-2 -168 61 -240q62 -71 221 -71q109 2 203 22v0z" />
    <glyph glyph-name="igrave" unicode="u" horiz-adv-x="1173" 
d="M1014 0v1018h-219v-492q-2 -153 -74 -256q-74 -106 -193 -108q-84 0 -116 53q-35 53 -35 147v656h-217v-713q-2 -137 65 -229q68 -94 238 -96q262 6 354 221l2 -2q-14 -103 -14 -199h209z" />
    <glyph glyph-name="icircumflex" unicode="v" horiz-adv-x="1014" 
d="M1001 1018h-235l-195 -547q-34 -102 -59 -201h-2q-29 103 -66 209l-190 539h-242l381 -1018h223z" />
    <glyph glyph-name="idieresis" unicode="w" horiz-adv-x="1626" 
d="M1599 1018h-227l-141 -481q-43 -144 -72 -277h-2q-27 117 -80 287l-153 471h-222l-151 -479q-41 -129 -72 -279h-2q-33 139 -76 285l-135 473h-239l313 -1018h231l154 491q39 125 70 256h2q26 -114 59 -215l176 -532h242z" />
    <glyph glyph-name="ntilde" unicode="x" horiz-adv-x="1071" 
d="M1036 0l-352 516l336 502h-244l-231 -363v0l-228 363h-264l344 -506l-364 -512h264l231 369v0l230 -369h278z" />
    <glyph glyph-name="oacute" unicode="y" horiz-adv-x="1003" 
d="M991 1018h-235l-146 -414q-61 -176 -100 -317h-2q-33 131 -80 266l-166 465h-246l381 -1018l-41 -109q-45 -126 -96 -174q-51 -47 -127 -47q-67 0 -133 23l-16 -193q69 -12 137 -14q168 -2 268 90q96 92 180 326z" />
    <glyph glyph-name="ograve" unicode="z" horiz-adv-x="919" 
d="M817 0v201h-199q-151 0 -256 -4l447 667v154h-703v-197h197q164 0 246 4l-453 -669v-156h721z" />
    <glyph glyph-name="ocircumflex" unicode="{" horiz-adv-x="717" 
d="M651 -412v174q-100 0 -139 52q-41 53 -41 194v320q-2 292 -188 317v2q92 19 141 90q47 74 47 219v211q0 146 41 197q39 51 139 49v172h-39q-354 -8 -344 -422v-213q0 -123 -47 -170q-51 -47 -164 -51v-168q113 -4 164 -53q47 -49 47 -174v-322q-8 -426 344 -424h39z" />
    <glyph glyph-name="odieresis" unicode="|" horiz-adv-x="569" 
d="M369 -512v2048h-174v-2048h174z" />
    <glyph glyph-name="otilde" unicode="}" horiz-adv-x="713" 
d="M670 561v168q-113 4 -160 53q-51 45 -51 174v207q10 414 -344 422h-39v-172q102 2 143 -49q37 -51 37 -197v-217q2 -282 188 -303v-2q-186 -25 -188 -317v-320q0 -141 -37 -194q-41 -52 -143 -52v-174h39q350 -2 344 424v322q0 125 51 174t160 53v0z" />
    <glyph glyph-name="uacute" unicode="~" horiz-adv-x="1180" 
d="M1087 534l-71 156v0q-47 -41 -101 -67q-55 -29 -110 -29q-58 0 -103 20q-47 19 -96 41q-45 27 -100 45q-55 17 -129 17q-92 0 -162 -33q-74 -35 -123 -82l68 -162v0q35 33 86 60q51 26 112 26q58 0 107 -16q49 -19 98 -45q49 -23 107 -41q57 -21 127 -21q178 5 290 131v0
z" />
    <glyph glyph-name="uni00A0" unicode="&#xa0;" horiz-adv-x="819" 
 />
    <glyph glyph-name="fl" unicode="&#xa1;" horiz-adv-x="620" 
d="M444 903q0 59 -39 98q-40 39 -102 39q-59 0 -98 -39q-41 -39 -41 -98q0 -57 41 -96q39 -41 98 -41q62 0 102 41q39 39 39 96v0zM424 -438l-31 1095h-186l-27 -1095h244z" />
    <glyph glyph-name="questiondown" unicode="&#xa2;" horiz-adv-x="932" 
d="M842 123l-17 192v0q-96 -57 -225 -57q-156 2 -221 90q-70 86 -68 219q6 316 293 320q121 0 215 -47l19 186q-101 37 -199 39v178h-168v-188q-182 -33 -283 -166q-104 -135 -104 -334q2 -426 387 -479v-215h168v213q117 12 203 49v0z" />
    <glyph glyph-name="exclamdown" unicode="&#xa3;" horiz-adv-x="1008" 
d="M885 0v192h-342q-92 0 -160 -8q86 74 129 158q41 82 41 192q0 54 -8 130h260v167h-277q-20 148 -22 244q0 193 176 195q65 0 141 -19l13 180q-84 17 -170 17q-377 6 -379 -381q0 -49 10 -113q6 -65 12 -123h-190v-167h209q12 -127 12 -158q0 -111 -55 -189
q-60 -79 -170 -151v-166h770z" />
    <glyph glyph-name="breve" unicode="&#xa4;" horiz-adv-x="1139" 
d="M981 -57v1062q-160 29 -356 29q-541 -12 -547 -575q4 -475 379 -477q225 4 317 208l4 -2q-14 -77 -12 -163v-68q0 -156 -80 -221q-80 -64 -233 -64q-158 2 -301 60v0l-17 -209q129 -37 301 -39q168 2 277 43q106 41 163 106q62 70 84 150q21 78 21 160v0zM764 530
q0 -139 -66 -249q-30 -54 -78 -84q-49 -35 -110 -35q-203 2 -201 317q0 205 82 295q80 86 211 86q82 0 162 -18v-312z" />
    <glyph glyph-name="quotedblleft" unicode="&#xa5;" horiz-adv-x="1221" 
d="M1163 1382h-235l-199 -395q-31 -65 -61 -131q-31 -68 -56 -133h-2q-41 110 -100 239l-203 420h-244l383 -770h-276v-143h328v-131h-328v-146h328v-192h221v192h330v146h-330v131h330v143h-277z" />
    <glyph glyph-name="logicalnot" unicode="&#xa7;" horiz-adv-x="1026" 
d="M885 471q-2 129 -68 233q-67 105 -153 189q-87 86 -152 162q-31 39 -49 75q-21 37 -21 70q-2 143 164 145q74 0 137 -20l15 184q-64 17 -146 17q-211 -2 -305 -101q-96 -96 -96 -233q2 -115 61 -195q-133 -98 -137 -286q2 -125 72 -228q65 -100 151 -186q86 -82 154 -158
q65 -76 68 -151q0 -64 -41 -105q-43 -43 -138 -45q-84 0 -151 23l-17 -191q74 -16 160 -18q117 2 199 33q80 28 129 75q49 50 74 109q20 59 20 117q-4 125 -68 202q60 48 99 123q39 72 39 160v0zM686 444q-2 -86 -55 -135q-148 150 -221 248q-74 98 -74 180q0 94 55 139
q115 -129 203 -227q90 -100 92 -205v0z" />
    <glyph glyph-name="nonbreakingspace" unicode="&#xa8;" horiz-adv-x="1118" 
d="M866 1335q0 53 -35 88q-34 35 -88 35q-53 0 -88 -35q-37 -35 -37 -88t37 -88q35 -37 88 -37q54 0 88 37q35 35 35 88v0zM465 1335q0 53 -35 88t-90 35q-53 0 -86 -35q-37 -35 -37 -88t37 -88q33 -37 86 -37q55 0 90 37q35 35 35 88v0z" />
    <glyph glyph-name="guillemotleft" unicode="&#xa9;" horiz-adv-x="1552" 
d="M774 1376q-295 -4 -489 -201q-201 -194 -205 -491q2 -295 201 -487q194 -199 493 -203q297 4 492 205q196 194 200 487q-4 295 -200 489q-195 197 -492 201v0zM774 1212q223 -4 373 -153q149 -150 151 -375q-2 -223 -151 -371q-150 -153 -373 -155q-223 2 -371 155
q-151 150 -153 373q2 225 153 375q148 149 371 151v0zM977 360l-27 146q-69 -31 -151 -31q-170 2 -168 207q0 100 41 162q41 59 135 61q80 -2 139 -35l23 152q-68 27 -166 29q-189 -2 -273 -113q-84 -109 -84 -262q0 -160 82 -254q80 -100 244 -100q113 0 205 38v0z" />
    <glyph glyph-name="Ydieresis" unicode="&#xaa;" horiz-adv-x="801" 
d="M674 686q-2 55 -2 176v305q2 97 -56 164q-30 35 -84 53q-55 17 -135 17q-153 0 -264 -45l16 -154v0q99 53 220 55q84 -2 108 -34q12 -17 17 -35q2 -23 2 -41v-35q-181 2 -291 -63q-113 -66 -113 -193q0 -82 51 -133q52 -53 158 -53q72 0 129 37q57 34 78 86l4 -3
q-10 -53 -10 -104h172zM496 975q0 -45 -35 -101q-37 -61 -117 -63q-82 2 -82 72q0 55 57 86q56 26 177 26v-20z" />
    <glyph glyph-name="Acircumflex" unicode="&#xab;" horiz-adv-x="1065" 
d="M498 807l-168 84v0l-230 -385l224 -381v0l174 88l-187 293zM930 799l-162 86v0l-252 -379l246 -375v0l168 90l-201 285z" />
    <glyph glyph-name="daggerdbl" unicode="&#xac;" horiz-adv-x="1110" 
d="M1003 133v494h-929v-179h737v-315h192z" />
    <glyph glyph-name="uni00AD" unicode="&#xad;" horiz-adv-x="446" 
d="M586 428v176h-492v-176h492z" />
    <glyph glyph-name="Delta" unicode="&#xae;" horiz-adv-x="1153" 
d="M768 860l-80 145q-20 41 -37 60q47 12 76 45q27 31 27 86q0 59 -37 92q-39 33 -125 33h-174v-461h110v184h11l96 -184h133zM633 1184q2 -64 -80 -66h-25v119h39q66 0 66 -53v0zM575 1417q140 -2 232 -96q92 -96 94 -236q-2 -137 -94 -229q-92 -94 -232 -96
q-135 2 -227 100q-94 94 -96 229q2 140 96 232q92 94 227 96v0zM575 1546q-194 -2 -325 -131q-135 -129 -137 -328q2 -198 135 -325q131 -131 327 -133q197 2 330 137q133 129 135 321q-2 201 -133 328q-131 129 -332 131v0z" />
    <glyph glyph-name="Gbreve" unicode="&#xaf;" horiz-adv-x="752" 
d="M592 1247v162h-449v-162h449z" />
    <glyph glyph-name="oslash" unicode="&#xb0;" horiz-adv-x="780" 
d="M672 1245q0 115 -66 191q-67 75 -217 77q-110 0 -199 -69q-90 -72 -92 -205q4 -264 279 -268q119 0 205 71q88 72 90 203v0zM506 1243q0 -55 -33 -94q-31 -39 -88 -39q-117 2 -119 133q0 59 37 96q31 35 84 35q68 -2 94 -41q25 -41 25 -90v0z" />
    <glyph glyph-name="oe" unicode="&#xb1;" horiz-adv-x="1190" 
d="M1094 553v180h-396v395h-207v-395h-395v-180h395v-399h207v399h396zM1083 -143v184h-977v-184h977z" />
    <glyph glyph-name="ellipsis" unicode="&#xb4;" horiz-adv-x="801" 
d="M276 1165l338 201l-98 149v0l-321 -225l81 -125v0z" />
    <glyph glyph-name="quotedblright" unicode="&#xb5;" horiz-adv-x="1259" 
d="M1092 0v1018h-218v-492q0 -159 -71 -262q-72 -104 -203 -106q-213 -4 -215 227v633h-219v-1518h219v338q0 154 -6 213l4 2q25 -24 74 -45q49 -22 116 -24q146 4 222 71q38 33 63 70q21 35 33 70l4 -3q-14 -106 -12 -192h209z" />
    <glyph glyph-name="florin" unicode="&#xb6;" horiz-adv-x="1198" 
d="M752 -25h-148v-172h338v1407h139v172h-329v-1407zM594 1382q-211 -2 -338 -123q-129 -118 -131 -319q0 -186 115 -315q112 -127 354 -134v891z" />
    <glyph glyph-name="scedilla" unicode="&#xb8;" horiz-adv-x="819" 
d="M575 -104h-204q102 -170 -86 -312l100 -86v0q178 90 213 193q33 102 -23 205v0z" />
    <glyph glyph-name="fraction" unicode="&#xba;" horiz-adv-x="864" 
d="M770 1046q-2 201 -98 281q-97 78 -232 76q-153 -2 -250 -99q-100 -100 -102 -270q0 -194 94 -278q88 -86 230 -84q159 0 258 102q98 100 100 272v0zM584 1044q0 -112 -45 -163q-45 -52 -115 -52q-84 2 -117 66q-35 61 -33 143q2 113 50 160q45 47 106 47q88 -2 123 -57
q31 -58 31 -144v0z" />
    <glyph glyph-name="Ecircumflex" unicode="&#xbb;" horiz-adv-x="1065" 
d="M567 211l168 -86v0l232 385l-226 381v0l-174 -86l187 -295zM135 219l162 -88v0l252 379l-246 375v0l-168 -88l201 -287z" />
    <glyph glyph-name="fi" unicode="&#xbf;" horiz-adv-x="872" 
d="M649 903q0 59 -39 98q-41 39 -102 39q-60 0 -98 -39q-41 -39 -41 -98q0 -57 41 -96q38 -41 98 -41q61 0 102 41q39 39 39 96v0zM741 -248q-178 10 -282 74q-109 63 -109 160q2 77 64 141q59 61 127 127q34 35 61 74t39 88q31 96 -18 241h-213q20 -65 20 -114
q0 -52 -16 -95q-17 -40 -45 -77q-29 -37 -64 -70t-65 -65q-35 -37 -64 -76t-45 -86q-20 -49 -20 -111q0 -158 155 -274q154 -117 447 -137z" />
    <glyph glyph-name="Egrave" unicode="&#xc0;" horiz-adv-x="1270" 
d="M1257 0l-501 1382h-248l-496 -1382h226l106 305h559l107 -305h247zM844 483h-443l156 428q41 113 63 219h5q22 -108 61 -213zM685 1480l84 125l-321 227v0l-101 -153l338 -199v0z" />
    <glyph glyph-name="zcaron" unicode="&#xc1;" horiz-adv-x="1270" 
d="M1257 0l-501 1382h-248l-496 -1382h226l106 305h559l107 -305h247zM844 483h-443l156 428q41 113 63 219h5q22 -108 61 -213zM563 1480l338 201l-98 149v0l-321 -225l81 -125v0z" />
    <glyph glyph-name="scaron" unicode="&#xc2;" horiz-adv-x="1270" 
d="M1257 0l-501 1382h-248l-496 -1382h226l106 305h559l107 -305h247zM844 483h-443l156 428q41 113 63 219h5q22 -108 61 -213zM865 1493l80 129l-301 182v0l-291 -187l72 -124v0l217 133v0l223 -133v0z" />
    <glyph glyph-name="Iacute" unicode="&#xc3;" horiz-adv-x="1270" 
d="M1257 0l-501 1382h-248l-496 -1382h226l106 305h559l107 -305h247zM844 483h-443l156 428q41 113 63 219h5q22 -108 61 -213zM988 1599l-45 145v0q-27 -24 -63 -45q-37 -20 -80 -20q-41 0 -74 18q-33 15 -66 33q-32 18 -69 35q-39 14 -94 14q-60 0 -109 -22
q-53 -25 -94 -64l47 -147v0q29 30 63 49q35 18 74 18q47 0 80 -14q33 -16 63 -35q33 -18 72 -33q39 -16 94 -16q62 0 115 29q53 22 86 55v0z" />
    <glyph glyph-name="ucircumflex" unicode="&#xc4;" horiz-adv-x="1270" 
d="M1257 0l-501 1382h-248l-496 -1382h226l106 305h559l107 -305h247zM844 483h-443l156 428q41 113 63 219h5q22 -108 61 -213zM963 1626q0 53 -35 88q-34 35 -88 35q-53 0 -88 -35q-37 -35 -37 -88t37 -88q35 -37 88 -37q54 0 88 37q35 35 35 88v0zM562 1626q0 53 -35 88
t-90 35q-53 0 -86 -35q-37 -35 -37 -88t37 -88q33 -37 86 -37q55 0 90 37q35 35 35 88v0z" />
    <glyph glyph-name="udieresis" unicode="&#xc5;" horiz-adv-x="1270" 
d="M1257 0l-501 1382h-248l-496 -1382h226l106 305h559l107 -305h247zM844 483h-443l156 428q41 113 63 219h5q22 -108 61 -213zM891 1579q-2 104 -70 170q-68 63 -174 66q-104 -3 -172 -66q-72 -66 -74 -170q2 -104 74 -168q68 -67 172 -67t174 69q68 66 70 166v0z
M756 1579q0 -47 -29 -78q-33 -35 -80 -35t-78 35q-33 31 -33 78q0 51 33 82q31 29 78 31q47 -2 80 -31q29 -31 29 -82v0z" />
    <glyph glyph-name="Atilde" unicode="&#xc6;" horiz-adv-x="1603" 
d="M1472 0v190h-512v430h478v183h-478v393h496v186h-827l-713 -1382h231l162 322h434v-322h729zM743 498h-356l219 413q86 168 133 283h4v-696z" />
    <glyph glyph-name="dagger" unicode="&#xc7;" horiz-adv-x="1178" 
d="M1087 49l-26 199v0q-131 -62 -291 -64q-442 4 -438 504q0 223 102 365q105 143 318 145q149 0 299 -47l24 205q-147 37 -305 39q-346 -5 -514 -209q-168 -205 -168 -535q-2 -282 143 -471q148 -192 490 -196q205 2 366 65v0zM797 -104h-204q102 -170 -86 -312l100 -86v0
q178 90 213 193q33 102 -23 205v0z" />
    <glyph glyph-name="Eth" unicode="&#xc8;" horiz-adv-x="1020" 
d="M889 0v190h-506v430h481v183h-481v393h506v186h-729v-1382h729zM593 1480l84 125l-321 227v0l-101 -153l338 -199v0z" />
    <glyph glyph-name="degree" unicode="&#xc9;" horiz-adv-x="1020" 
d="M889 0v190h-506v430h481v183h-481v393h506v186h-729v-1382h729zM451 1480l338 201l-98 149v0l-321 -225l81 -125v0z" />
    <glyph glyph-name="Zcaron" unicode="&#xca;" horiz-adv-x="1020" 
d="M889 0v190h-506v430h481v183h-481v393h506v186h-729v-1382h729zM741 1493l80 129l-301 182v0l-291 -187l72 -124v0l217 133v0l223 -133v0z" />
    <glyph glyph-name="brokenbar" unicode="&#xcb;" horiz-adv-x="1020" 
d="M889 0v190h-506v430h481v183h-481v393h506v186h-729v-1382h729zM843 1626q0 53 -35 88q-34 35 -88 35q-53 0 -88 -35q-37 -35 -37 -88t37 -88q35 -37 88 -37q54 0 88 37q35 35 35 88v0zM442 1626q0 53 -35 88t-90 35q-53 0 -86 -35q-37 -35 -37 -88t37 -88q33 -37 86 -37
q55 0 90 37q35 35 35 88v0z" />
    <glyph glyph-name="Thorn" unicode="&#xcc;" horiz-adv-x="545" 
d="M383 0v1382h-223v-1382h223zM360 1481l84 127l-321 225v0l-100 -154l337 -198v0z" />
    <glyph glyph-name="eth" unicode="&#xcd;" horiz-adv-x="545" 
d="M383 0v1382h-223v-1382h223zM178 1483l338 198l-98 150v0l-322 -225l82 -123v0z" />
    <glyph glyph-name="Yacute" unicode="&#xce;" horiz-adv-x="545" 
d="M383 0v1382h-223v-1382h223zM496 1493l77 129l-299 182v0l-292 -186l73 -125v0l217 135v0l224 -135v0z" />
    <glyph glyph-name="yacute" unicode="&#xcf;" horiz-adv-x="545" 
d="M383 0v1382h-223v-1382h223zM594 1626q0 55 -35 90t-88 35t-88 -35q-37 -35 -37 -90q0 -51 37 -86q35 -37 88 -37t88 37q35 35 35 86v0zM192 1626q0 55 -34 90q-35 35 -90 35q-52 0 -86 -35q-35 -35 -37 -90q2 -51 37 -86q34 -37 86 -37q55 0 90 37q34 35 34 86v0z" />
    <glyph glyph-name="cent" unicode="&#xd1;" 
d="M1280 0v1382h-217v-409q0 -363 14 -658v0q-76 156 -168 314l-456 753h-293v-1382h217v465q0 352 -12 612v0q63 -139 153 -291l473 -786h289zM1064 1599l-45 145v0q-27 -24 -63 -45q-37 -20 -80 -20q-41 0 -74 18q-33 15 -66 33q-32 18 -69 35q-39 14 -94 14
q-60 0 -109 -22q-53 -25 -94 -64l47 -147v0q29 30 63 49q35 18 74 18q47 0 80 -14q33 -16 63 -35q33 -18 72 -33q39 -16 94 -16q62 0 115 29q53 22 86 55v0z" />
    <glyph glyph-name="onesuperior" unicode="&#xd2;" 
d="M1364 709q-17 694 -623 694q-280 -2 -467 -191q-192 -190 -196 -536q-2 -680 622 -696q283 2 471 192q189 190 193 537v0zM1126 686q-4 -258 -127 -383t-282 -125q-203 2 -301 146q-101 141 -101 378q2 250 125 377q117 127 281 127q401 -6 405 -520v0zM811 1480l84 125
l-321 227v0l-101 -153l338 -199v0z" />
    <glyph glyph-name="thorn" unicode="&#xd3;" 
d="M1364 709q-17 694 -623 694q-280 -2 -467 -191q-192 -190 -196 -536q-2 -680 622 -696q283 2 471 192q189 190 193 537v0zM1126 686q-4 -258 -127 -383t-282 -125q-203 2 -301 146q-101 141 -101 378q2 250 125 377q117 127 281 127q401 -6 405 -520v0zM691 1480l338 201
l-98 149v0l-321 -225l81 -125v0z" />
    <glyph glyph-name="minus" unicode="&#xd4;" 
d="M1364 709q-17 694 -623 694q-280 -2 -467 -191q-192 -190 -196 -536q-2 -680 622 -696q283 2 471 192q189 190 193 537v0zM1126 686q-4 -258 -127 -383t-282 -125q-203 2 -301 146q-101 141 -101 378q2 250 125 377q117 127 281 127q401 -6 405 -520v0zM965 1493l80 129
l-301 182v0l-291 -187l72 -124v0l217 133v0l223 -133v0z" />
    <glyph glyph-name="Icircumflex" unicode="&#xd5;" 
d="M1364 709q-17 694 -623 694q-280 -2 -467 -191q-192 -190 -196 -536q-2 -680 622 -696q283 2 471 192q189 190 193 537v0zM1126 686q-4 -258 -127 -383t-282 -125q-203 2 -301 146q-101 141 -101 378q2 250 125 377q117 127 281 127q401 -6 405 -520v0zM1080 1603
l-45 145v0q-27 -24 -63 -45q-37 -20 -80 -20q-41 0 -74 18q-33 15 -66 33q-32 18 -69 35q-39 14 -94 14q-60 0 -109 -22q-53 -25 -94 -64l47 -147v0q29 30 63 49q35 18 74 18q47 0 80 -14q33 -16 63 -35q33 -18 72 -33q39 -16 94 -16q62 0 115 29q53 22 86 55v0z" />
    <glyph glyph-name="sterling" unicode="&#xd6;" 
d="M1364 709q-17 694 -623 694q-280 -2 -467 -191q-192 -190 -196 -536q-2 -680 622 -696q283 2 471 192q189 190 193 537v0zM1126 686q-4 -258 -127 -383t-282 -125q-203 2 -301 146q-101 141 -101 378q2 250 125 377q117 127 281 127q401 -6 405 -520v0zM1062 1626
q0 53 -35 88q-34 35 -88 35q-53 0 -88 -35q-37 -35 -37 -88t37 -88q35 -37 88 -37q54 0 88 37q35 35 35 88v0zM661 1626q0 53 -35 88t-90 35q-53 0 -86 -35q-37 -35 -37 -88t37 -88q33 -37 86 -37q55 0 90 37q35 35 35 88v0z" />
    <glyph glyph-name="Otilde" unicode="&#xd8;" 
d="M1358 698q-6 508 -326 645l68 191l-164 53v0l-70 -197q-61 13 -133 13q-282 -2 -465 -189q-188 -186 -192 -536q0 -219 76 -385q75 -166 233 -248l-74 -205l164 -53v0l76 207q65 -14 143 -14q289 2 473 190q187 188 191 528v0zM1130 682q-2 -246 -114 -373
q-113 -125 -281 -135q-59 -2 -119 12l340 942v0q174 -127 174 -446v0zM799 1194l-338 -930v0q-84 66 -121 176q-37 111 -37 256q2 238 111 363q104 127 256 139q71 6 129 -4v0z" />
    <glyph glyph-name="onehalf" unicode="&#xd9;" horiz-adv-x="1407" 
d="M1247 532v850h-219v-866q2 -360 -328 -352q-186 0 -254 94q-65 88 -63 229v895h-223v-911q0 -96 22 -182q23 -90 80 -158t160 -108q102 -41 264 -43q557 0 561 552v0zM774 1480l84 125l-321 227v0l-101 -153l338 -199v0z" />
    <glyph glyph-name="twosuperior" unicode="&#xda;" horiz-adv-x="1407" 
d="M1247 532v850h-219v-866q2 -360 -328 -352q-186 0 -254 94q-65 88 -63 229v895h-223v-911q0 -96 22 -182q23 -90 80 -158t160 -108q102 -41 264 -43q557 0 561 552v0zM644 1480l338 201l-98 149v0l-321 -225l81 -125v0z" />
    <glyph glyph-name="threesuperior" unicode="&#xdb;" horiz-adv-x="1407" 
d="M1247 532v850h-219v-866q2 -360 -328 -352q-186 0 -254 94q-65 88 -63 229v895h-223v-911q0 -96 22 -182q23 -90 80 -158t160 -108q102 -41 264 -43q557 0 561 552v0zM928 1493l80 129l-301 182v0l-291 -187l72 -124v0l217 133v0l223 -133v0z" />
    <glyph glyph-name="section" unicode="&#xdc;" horiz-adv-x="1407" 
d="M1247 532v850h-219v-866q2 -360 -328 -352q-186 0 -254 94q-65 88 -63 229v895h-223v-911q0 -96 22 -182q23 -90 80 -158t160 -108q102 -41 264 -43q557 0 561 552v0zM1015 1626q0 53 -35 88q-34 35 -88 35q-53 0 -88 -35q-37 -35 -37 -88t37 -88q35 -37 88 -37
q54 0 88 37q35 35 35 88v0zM614 1626q0 53 -35 88t-90 35q-53 0 -86 -35q-37 -35 -37 -88t37 -88q33 -37 86 -37q55 0 90 37q35 35 35 88v0z" />
    <glyph glyph-name="approxequal" unicode="&#xdf;" horiz-adv-x="1227" 
d="M1153 313q-2 117 -57 185q-58 65 -136 106q-75 41 -135 86q-59 41 -61 111q2 65 43 104q39 37 90 72t90 92q39 53 41 154q-6 280 -391 288q-199 2 -334 -110q-141 -117 -143 -383v-1018h219v1030q4 313 248 311q82 0 129 -32q47 -35 47 -103q-2 -65 -41 -106
q-39 -45 -90 -84q-52 -39 -90 -92q-41 -58 -41 -148q2 -117 61 -180q29 -33 64 -57q34 -27 69 -50q78 -41 135 -81q56 -43 58 -119q0 -56 -45 -94q-47 -43 -154 -43q-100 0 -192 38l-9 -186q82 -22 209 -24q193 2 303 94q111 90 113 239v0z" />
    <glyph glyph-name="paragraph" unicode="&#xe0;" horiz-adv-x="1071" 
d="M913 0q-6 137 -6 279v415q2 158 -80 252q-88 90 -317 92q-203 -2 -358 -67l20 -187v0q145 82 303 82q119 0 168 -47q45 -49 45 -145v-66q-276 0 -436 -96q-162 -96 -164 -272q6 -256 285 -260q123 2 213 61q88 57 125 149l2 -2q-11 -86 -11 -188h211zM688 440
q-2 -112 -68 -196q-65 -90 -182 -92q-65 0 -100 34q-39 35 -39 90q-2 72 76 127q43 29 119 43q75 15 194 15v-21zM621 1165l84 125l-321 227v0l-101 -153l338 -199v0z" />
    <glyph glyph-name="bullet" unicode="&#xe1;" horiz-adv-x="1071" 
d="M913 0q-6 137 -6 279v415q2 158 -80 252q-88 90 -317 92q-203 -2 -358 -67l20 -187v0q145 82 303 82q119 0 168 -47q45 -49 45 -145v-66q-276 0 -436 -96q-162 -96 -164 -272q6 -256 285 -260q123 2 213 61q88 57 125 149l2 -2q-11 -86 -11 -188h211zM688 440
q-2 -112 -68 -196q-65 -90 -182 -92q-65 0 -100 34q-39 35 -39 90q-2 72 76 127q43 29 119 43q75 15 194 15v-21zM473 1165l338 201l-98 149v0l-321 -225l81 -125v0z" />
    <glyph glyph-name="germandbls" unicode="&#xe2;" horiz-adv-x="1071" 
d="M913 0q-6 137 -6 279v415q2 158 -80 252q-88 90 -317 92q-203 -2 -358 -67l20 -187v0q145 82 303 82q119 0 168 -47q45 -49 45 -145v-66q-276 0 -436 -96q-162 -96 -164 -272q6 -256 285 -260q123 2 213 61q88 57 125 149l2 -2q-11 -86 -11 -188h211zM688 440
q-2 -112 -68 -196q-65 -90 -182 -92q-65 0 -100 34q-39 35 -39 90q-2 72 76 127q43 29 119 43q75 15 194 15v-21zM753 1178l80 129l-301 182v0l-291 -187l72 -124v0l217 133v0l223 -133v0z" />
    <glyph glyph-name="copyright" unicode="&#xe3;" horiz-adv-x="1071" 
d="M913 0q-6 137 -6 279v415q2 158 -80 252q-88 90 -317 92q-203 -2 -358 -67l20 -187v0q145 82 303 82q119 0 168 -47q45 -49 45 -145v-66q-276 0 -436 -96q-162 -96 -164 -272q6 -256 285 -260q123 2 213 61q88 57 125 149l2 -2q-11 -86 -11 -188h211zM688 440
q-2 -112 -68 -196q-65 -90 -182 -92q-65 0 -100 34q-39 35 -39 90q-2 72 76 127q43 29 119 43q75 15 194 15v-21zM871 1284l-45 145v0q-27 -24 -63 -45q-37 -20 -80 -20q-41 0 -74 18q-33 15 -66 33q-32 18 -69 35q-39 14 -94 14q-60 0 -109 -22q-53 -25 -94 -64l47 -147v0
q29 30 63 49q35 18 74 18q47 0 80 -14q33 -16 63 -35q33 -18 72 -33q39 -16 94 -16q62 0 115 29q53 22 86 55v0z" />
    <glyph glyph-name="registered" unicode="&#xe4;" horiz-adv-x="1071" 
d="M913 0q-6 137 -6 279v415q2 158 -80 252q-88 90 -317 92q-203 -2 -358 -67l20 -187v0q145 82 303 82q119 0 168 -47q45 -49 45 -145v-66q-276 0 -436 -96q-162 -96 -164 -272q6 -256 285 -260q123 2 213 61q88 57 125 149l2 -2q-11 -86 -11 -188h211zM688 440
q-2 -112 -68 -196q-65 -90 -182 -92q-65 0 -100 34q-39 35 -39 90q-2 72 76 127q43 29 119 43q75 15 194 15v-21zM856 1335q0 53 -35 88q-34 35 -88 35q-53 0 -88 -35q-37 -35 -37 -88t37 -88q35 -37 88 -37q54 0 88 37q35 35 35 88v0zM455 1335q0 53 -35 88t-90 35
q-53 0 -86 -35q-37 -35 -37 -88t37 -88q33 -37 86 -37q55 0 90 37q35 35 35 88v0z" />
    <glyph glyph-name="trademark" unicode="&#xe5;" horiz-adv-x="1071" 
d="M913 0q-6 137 -6 279v415q2 158 -80 252q-88 90 -317 92q-203 -2 -358 -67l20 -187v0q145 82 303 82q119 0 168 -47q45 -49 45 -145v-66q-276 0 -436 -96q-162 -96 -164 -272q6 -256 285 -260q123 2 213 61q88 57 125 149l2 -2q-11 -86 -11 -188h211zM688 440
q-2 -112 -68 -196q-65 -90 -182 -92q-65 0 -100 34q-39 35 -39 90q-2 72 76 127q43 29 119 43q75 15 194 15v-21zM782 1360q-2 104 -70 170q-68 63 -174 66q-104 -3 -172 -66q-72 -66 -74 -170q2 -104 74 -168q68 -67 172 -67t174 69q68 66 70 166v0zM647 1360
q0 -47 -29 -78q-33 -35 -80 -35t-78 35q-33 31 -33 78q0 51 33 82q31 29 78 31q47 -2 80 -31q29 -31 29 -82v0z" />
    <glyph glyph-name="guilsinglleft" unicode="&#xe6;" horiz-adv-x="1646" 
d="M1558 598q0 186 -96 311q-100 127 -319 129q-213 -6 -310 -141h-2q-47 78 -131 111q-84 32 -190 32q-203 -4 -358 -69l20 -187v0q145 82 303 82q119 0 168 -49q45 -49 45 -143v-66q-276 0 -436 -96q-162 -96 -164 -272q4 -256 283 -260q147 2 241 69q92 66 135 152l3 2
q86 -215 419 -223q195 0 353 65l-19 174v0q-137 -65 -299 -65q-307 -5 -301 342h649q6 59 6 102v0zM1339 649h-432q17 107 78 166q59 59 150 61q202 -4 204 -227v0zM688 440q-2 -112 -68 -196q-65 -90 -182 -92q-65 0 -100 34q-39 35 -39 90q-2 72 76 127q43 29 119 43
q75 15 194 15v-21z" />
    <glyph glyph-name="acute" unicode="&#xe7;" horiz-adv-x="883" 
d="M817 35l-18 186q-97 -49 -222 -49q-149 2 -208 96q-64 90 -62 232q0 164 72 258t209 94q112 -2 205 -39l22 190q-104 31 -221 31q-260 -2 -387 -155q-129 -156 -129 -404q2 -266 129 -381q123 -110 323 -110q88 0 162 16q76 16 125 35v0zM608 -104h-204
q102 -170 -86 -312l100 -86v0q178 90 213 193q33 102 -23 205v0z" />
    <glyph glyph-name="notequal" unicode="&#xe8;" horiz-adv-x="1046" 
d="M958 598q0 186 -98 311q-100 127 -317 129q-224 -2 -342 -151q-123 -150 -123 -385q4 -527 491 -522q193 0 353 65l-21 174v0q-133 -65 -297 -65q-307 -5 -301 342h649q6 59 6 102v0zM739 649h-432q17 107 76 166t151 61q203 -4 205 -227v0zM624 1165l84 125l-321 227v0
l-101 -153l338 -199v0z" />
    <glyph glyph-name="dieresis" unicode="&#xe9;" horiz-adv-x="1046" 
d="M958 598q0 186 -98 311q-100 127 -317 129q-224 -2 -342 -151q-123 -150 -123 -385q4 -527 491 -522q193 0 353 65l-21 174v0q-133 -65 -297 -65q-307 -5 -301 342h649q6 59 6 102v0zM739 649h-432q17 107 76 166t151 61q203 -4 205 -227v0zM483 1165l338 201l-98 149v0
l-321 -225l81 -125v0z" />
    <glyph glyph-name="AE" unicode="&#xea;" horiz-adv-x="1046" 
d="M958 598q0 186 -98 311q-100 127 -317 129q-224 -2 -342 -151q-123 -150 -123 -385q4 -527 491 -522q193 0 353 65l-21 174v0q-133 -65 -297 -65q-307 -5 -301 342h649q6 59 6 102v0zM739 649h-432q17 107 76 166t151 61q203 -4 205 -227v0zM765 1178l80 129l-301 182v0
l-291 -187l72 -124v0l217 133v0l223 -133v0z" />
    <glyph glyph-name="Oslash" unicode="&#xeb;" horiz-adv-x="1046" 
d="M958 598q0 186 -98 311q-100 127 -317 129q-224 -2 -342 -151q-123 -150 -123 -385q4 -527 491 -522q193 0 353 65l-21 174v0q-133 -65 -297 -65q-307 -5 -301 342h649q6 59 6 102v0zM739 649h-432q17 107 76 166t151 61q203 -4 205 -227v0zM870 1335q0 53 -35 88
q-34 35 -88 35q-53 0 -88 -35q-37 -35 -37 -88t37 -88q35 -37 88 -37q54 0 88 37q35 35 35 88v0zM469 1335q0 53 -35 88t-90 35q-53 0 -86 -35q-37 -35 -37 -88t37 -88q33 -37 86 -37q55 0 90 37q35 35 35 88v0z" />
    <glyph glyph-name="plusminus" unicode="&#xec;" horiz-adv-x="539" 
d="M379 0v1018h-219v-1018h219zM369 1165l84 125l-322 227v0l-100 -153l338 -199v0z" />
    <glyph glyph-name="infinity" unicode="&#xed;" horiz-adv-x="539" 
d="M379 0v1018h-219v-1018h219zM166 1165l338 201l-99 149v0l-321 -225l82 -125v0z" />
    <glyph glyph-name="lessequal" unicode="&#xee;" horiz-adv-x="539" 
d="M379 0v1018h-219v-1018h219zM489 1178l78 129l-299 182v0l-293 -187l74 -124v0l215 133v0l225 -133v0z" />
    <glyph glyph-name="greaterequal" unicode="&#xef;" horiz-adv-x="539" 
d="M379 0v1018h-219v-1018h219zM596 1335q0 53 -35 88t-88 35t-88 -35q-37 -35 -37 -88t37 -88q35 -37 88 -37t88 37q35 35 35 88v0zM195 1335q0 53 -35 88t-90 35q-52 0 -86 -35q-35 -35 -37 -88q2 -53 37 -88q34 -37 86 -37q55 0 90 37q35 35 35 88v0z" />
    <glyph glyph-name="yen" unicode="&#xf1;" horiz-adv-x="1173" 
d="M1014 0v713q2 139 -64 231q-67 92 -239 94q-263 -6 -355 -221l-2 2q15 103 15 199h-209v-1018h219v491q0 158 78 261q73 102 188 104q88 0 121 -51q31 -53 31 -150v-655h217zM925 1284l-45 145v0q-27 -24 -63 -45q-37 -20 -80 -20q-41 0 -74 18q-33 15 -66 33
q-32 18 -69 35q-39 14 -94 14q-60 0 -109 -22q-53 -25 -94 -64l47 -147v0q29 30 63 49q35 18 74 18q47 0 80 -14q33 -16 63 -35q33 -18 72 -33q39 -16 94 -16q62 0 115 29q53 22 86 55v0z" />
    <glyph glyph-name="partialdiff" unicode="&#xf2;" horiz-adv-x="1124" 
d="M1046 528q-2 269 -129 391q-127 119 -335 119q-234 -2 -369 -153q-137 -154 -139 -389q10 -521 467 -516q231 4 366 157q137 154 139 391v0zM821 514q-2 -174 -76 -260q-73 -86 -184 -86q-260 2 -260 350q2 174 82 256q78 80 180 80q258 -4 258 -340v0zM660 1165l84 125
l-321 227v0l-101 -153l338 -199v0z" />
    <glyph glyph-name="mu" unicode="&#xf3;" horiz-adv-x="1124" 
d="M1046 528q-2 269 -129 391q-127 119 -335 119q-234 -2 -369 -153q-137 -154 -139 -389q10 -521 467 -516q231 4 366 157q137 154 139 391v0zM821 514q-2 -174 -76 -260q-73 -86 -184 -86q-260 2 -260 350q2 174 82 256q78 80 180 80q258 -4 258 -340v0zM514 1165l338 201
l-98 149v0l-321 -225l81 -125v0z" />
    <glyph glyph-name="summation" unicode="&#xf4;" horiz-adv-x="1124" 
d="M1046 528q-2 269 -129 391q-127 119 -335 119q-234 -2 -369 -153q-137 -154 -139 -389q10 -521 467 -516q231 4 366 157q137 154 139 391v0zM821 514q-2 -174 -76 -260q-73 -86 -184 -86q-260 2 -260 350q2 174 82 256q78 80 180 80q258 -4 258 -340v0zM792 1178l80 129
l-301 182v0l-291 -187l72 -124v0l217 133v0l223 -133v0z" />
    <glyph glyph-name="pi" unicode="&#xf5;" horiz-adv-x="1124" 
d="M1046 528q-2 269 -129 391q-127 119 -335 119q-234 -2 -369 -153q-137 -154 -139 -389q10 -521 467 -516q231 4 366 157q137 154 139 391v0zM821 514q-2 -174 -76 -260q-73 -86 -184 -86q-260 2 -260 350q2 174 82 256q78 80 180 80q258 -4 258 -340v0zM919 1284l-45 145
v0q-27 -24 -63 -45q-37 -20 -80 -20q-41 0 -74 18q-33 15 -66 33q-32 18 -69 35q-39 14 -94 14q-60 0 -109 -22q-53 -25 -94 -64l47 -147v0q29 30 63 49q35 18 74 18q47 0 80 -14q33 -16 63 -35q33 -18 72 -33q39 -16 94 -16q62 0 115 29q53 22 86 55v0z" />
    <glyph glyph-name="product" unicode="&#xf6;" horiz-adv-x="1124" 
d="M1046 528q-2 269 -129 391q-127 119 -335 119q-234 -2 -369 -153q-137 -154 -139 -389q10 -521 467 -516q231 4 366 157q137 154 139 391v0zM821 514q-2 -174 -76 -260q-73 -86 -184 -86q-260 2 -260 350q2 174 82 256q78 80 180 80q258 -4 258 -340v0zM894 1335
q0 53 -35 88q-34 35 -88 35q-53 0 -88 -35q-37 -35 -37 -88t37 -88q35 -37 88 -37q54 0 88 37q35 35 35 88v0zM493 1335q0 53 -35 88t-90 35q-53 0 -86 -35q-37 -35 -37 -88t37 -88q33 -37 86 -37q55 0 90 37q35 35 35 88v0z" />
    <glyph glyph-name="Ugrave" unicode="&#xf7;" horiz-adv-x="1218" 
d="M750 940q0 59 -39 100q-41 39 -103 39q-57 0 -96 -39q-43 -41 -43 -100t43 -98q39 -43 96 -43q62 0 103 43q39 39 39 98v0zM1122 436v184h-1026v-184h1026zM750 115q0 61 -39 102q-41 39 -103 39q-57 0 -96 -39q-43 -41 -43 -102q0 -58 43 -97q39 -41 96 -43q62 2 103 43
q39 39 39 97v0z" />
    <glyph glyph-name="guilsinglright" unicode="&#xf8;" horiz-adv-x="1116" 
d="M1034 526q-2 195 -65 307q-64 113 -168 160l71 187l-133 43v0l-73 -191q-48 6 -97 6q-229 -2 -362 -149q-137 -148 -137 -389q0 -332 213 -463l-82 -211l133 -41v0l80 209q55 -14 120 -14q228 4 363 157q135 150 137 389v0zM827 518q-2 -180 -73 -266q-72 -88 -177 -94
q-53 -2 -94 12l240 629v0q104 -84 104 -281v0zM598 858l-236 -616v0q-88 92 -88 270q2 182 82 264q39 43 82 64q45 18 88 20q39 2 72 -2v0z" />
    <glyph glyph-name="ordfeminine" unicode="&#xf9;" horiz-adv-x="1173" 
d="M1014 0v1018h-219v-492q-2 -153 -74 -256q-74 -106 -193 -108q-84 0 -116 53q-35 53 -35 147v656h-217v-713q-2 -137 65 -229q68 -94 238 -96q262 6 354 221l2 -2q-14 -103 -14 -199h209zM667 1165l84 125l-321 227v0l-101 -153l338 -199v0z" />
    <glyph glyph-name="integral" unicode="&#xfa;" horiz-adv-x="1173" 
d="M1014 0v1018h-219v-492q-2 -153 -74 -256q-74 -106 -193 -108q-84 0 -116 53q-35 53 -35 147v656h-217v-713q-2 -137 65 -229q68 -94 238 -96q262 6 354 221l2 -2q-14 -103 -14 -199h209zM517 1165l338 201l-98 149v0l-321 -225l81 -125v0z" />
    <glyph glyph-name="ordmasculine" unicode="&#xfb;" horiz-adv-x="1173" 
d="M1014 0v1018h-219v-492q-2 -153 -74 -256q-74 -106 -193 -108q-84 0 -116 53q-35 53 -35 147v656h-217v-713q-2 -137 65 -229q68 -94 238 -96q262 6 354 221l2 -2q-14 -103 -14 -199h209zM803 1178l80 129l-301 182v0l-291 -187l72 -124v0l217 133v0l223 -133v0z" />
    <glyph glyph-name="Omega" unicode="&#xfc;" horiz-adv-x="1173" 
d="M1014 0v1018h-219v-492q-2 -153 -74 -256q-74 -106 -193 -108q-84 0 -116 53q-35 53 -35 147v656h-217v-713q-2 -137 65 -229q68 -94 238 -96q262 6 354 221l2 -2q-14 -103 -14 -199h209zM902 1335q0 53 -35 88q-34 35 -88 35q-53 0 -88 -35q-37 -35 -37 -88t37 -88
q35 -37 88 -37q54 0 88 37q35 35 35 88v0zM501 1335q0 53 -35 88t-90 35q-53 0 -86 -35q-37 -35 -37 -88t37 -88q33 -37 86 -37q55 0 90 37q35 35 35 88v0z" />
    <glyph glyph-name="circumflex" unicode="&#xff;" horiz-adv-x="1003" 
d="M991 1018h-235l-146 -414q-61 -176 -100 -317h-2q-33 131 -80 266l-166 465h-246l381 -1018l-41 -109q-45 -126 -96 -174q-51 -47 -127 -47q-67 0 -133 23l-16 -193q69 -12 137 -14q168 -2 268 90q96 92 180 326zM826 1335q0 53 -35 88q-34 35 -88 35q-53 0 -88 -35
q-37 -35 -37 -88t37 -88q35 -37 88 -37q54 0 88 37q35 35 35 88v0zM425 1335q0 53 -35 88t-90 35q-53 0 -86 -35q-37 -35 -37 -88t37 -88q33 -37 86 -37q55 0 90 37q35 35 35 88v0z" />
    <glyph glyph-name="glyph170" unicode="&#x131;" horiz-adv-x="539" 
d="M379 0v1018h-219v-1018h219z" />
    <glyph glyph-name="Idieresis" unicode="&#x152;" horiz-adv-x="1694" 
d="M1563 0v190h-506v430h481v183h-481v393h506v186h-570q-59 0 -123 8q-63 5 -145 5q-274 -2 -457 -191q-186 -188 -190 -526q0 -309 149 -498q150 -190 461 -194q82 2 158 8q71 6 155 6h562zM842 195q-56 -13 -123 -13q-217 2 -314 148q-96 143 -94 368q2 240 121 371
q115 131 285 131q63 0 125 -10v-995z" />
    <glyph glyph-name="Igrave" unicode="&#x153;" horiz-adv-x="1773" 
d="M1687 598q0 186 -98 311q-100 127 -317 129q-234 -4 -342 -174v0q-56 90 -150 133q-92 41 -205 41q-229 -2 -364 -149q-137 -150 -137 -387q-2 -512 460 -522q132 2 224 55t145 135v0q98 -186 393 -190q195 0 355 65l-19 174v0q-135 -65 -301 -65q-305 -5 -301 342h649
q8 59 8 102v0zM1466 649h-432q17 103 78 166q59 59 152 61q200 -4 202 -227v0zM817 514q-2 -178 -76 -264q-73 -88 -186 -88q-139 2 -203 98q-63 96 -61 252q0 98 26 166q23 67 60 106q78 76 178 74q264 -2 262 -344v0z" />
    <glyph glyph-name="tilde" unicode="&#x178;" horiz-adv-x="1122" 
d="M1108 1382h-236l-194 -411q-66 -133 -115 -258h-4q-43 110 -98 233l-205 436h-244l432 -888v-494h224v494zM881 1626q0 53 -35 88q-34 35 -88 35q-53 0 -88 -35q-37 -35 -37 -88t37 -88q35 -37 88 -37q54 0 88 37q35 35 35 88v0zM480 1626q0 53 -35 88t-90 35
q-53 0 -86 -35q-37 -35 -37 -88t37 -88q33 -37 86 -37q55 0 90 37q35 35 35 88v0z" />
    <glyph glyph-name="quotesinglbase" unicode="&#x192;" horiz-adv-x="874" 
d="M491 707h254v169h-241l20 232q13 123 56 176q43 51 124 51q64 0 121 -14l13 180q-74 12 -136 12q-368 7 -397 -428l-20 -209h-195v-169h180l-65 -725q-13 -240 -180 -240q-62 0 -121 14l-13 -184q74 -12 136 -12q190 -2 286 102q92 105 115 365z" />
    <glyph glyph-name="threequarters" unicode="&#x2c6;" horiz-adv-x="881" 
d="M657 1178l80 129l-301 182v0l-291 -187l72 -124v0l217 133v0l223 -133v0z" />
    <glyph glyph-name="Ccaron" unicode="&#x2c7;" horiz-adv-x="881" 
d="M434 1173l291 187l-72 125v0l-217 -135v0l-223 135v0l-80 -131l301 -181v0z" />
    <glyph glyph-name="gbreve" unicode="&#x2d8;" horiz-adv-x="795" 
d="M664 1477h-150q-2 -127 -119 -127q-57 0 -88 38q-31 35 -31 89h-147q0 -115 63 -199q62 -90 201 -92q141 2 207 90q64 84 64 201v0z" />
    <glyph glyph-name="Idotaccent" unicode="&#x2d9;" horiz-adv-x="584" 
d="M430 1341q-2 60 -41 99q-41 39 -98 39q-55 0 -94 -39q-43 -41 -43 -99q0 -57 43 -92q39 -41 94 -41q59 0 100 41q39 35 39 92v0z" />
    <glyph glyph-name="Scedilla" unicode="&#x2da;" horiz-adv-x="768" 
d="M629 1327q-2 104 -70 170q-68 63 -174 66q-104 -3 -172 -66q-72 -66 -74 -170q2 -104 74 -168q68 -67 172 -67t174 69q68 66 70 166v0zM494 1327q0 -47 -29 -78q-33 -35 -80 -35t-78 35q-33 31 -33 78q0 51 33 82q31 29 78 31q47 -2 80 -31q29 -31 29 -82v0z" />
    <glyph glyph-name="cacute" unicode="&#x2db;" horiz-adv-x="528" 
d="M455 -473v135q-52 -8 -84 -6q-35 0 -54 12q-38 23 -36 76q0 57 22 125q23 65 53 123h-157q-41 -64 -72 -139q-33 -78 -33 -150q-2 -84 49 -137q25 -25 66 -41q39 -16 96 -16q82 0 150 18v0z" />
    <glyph glyph-name="onequarter" unicode="&#x2dc;" horiz-adv-x="989" 
d="M858 1284l-45 145v0q-27 -24 -63 -45q-37 -20 -80 -20q-41 0 -74 18q-33 15 -66 33q-32 18 -69 35q-39 14 -94 14q-60 0 -109 -22q-53 -25 -94 -64l47 -147v0q29 30 63 49q35 18 74 18q47 0 80 -14q33 -16 63 -35q33 -18 72 -33q39 -16 94 -16q62 0 115 29q53 22 86 55v0
z" />
    <glyph glyph-name="lozenge" unicode="&#x3c0;" horiz-adv-x="1372" 
d="M1276 2l-15 156q-47 -17 -104 -17q-65 -2 -88 45q-23 50 -23 213v443h213v176h-1177v-176h213v-842h205v842h340v-584q-2 -139 51 -207q51 -71 180 -71q117 0 205 22v0z" />
    <glyph glyph-name="Oacute" unicode="&#x2013;" horiz-adv-x="1024" 
d="M1024 496v192h-1024v-192h1024z" />
    <glyph glyph-name="Ocircumflex" unicode="&#x2014;" horiz-adv-x="2048" 
d="M2048 496v192h-2048v-192h2048z" />
    <glyph glyph-name="Uacute" unicode="&#x2018;" horiz-adv-x="520" 
d="M348 1540v0q-127 -115 -182 -221q-55 -109 -57 -193q0 -84 40 -133q39 -51 103 -51q92 2 121 78q28 72 -19 135q-43 51 -26 125q14 72 112 178z" />
    <glyph glyph-name="Ucircumflex" unicode="&#x2019;" horiz-adv-x="520" 
d="M170 928v0q129 118 186 227q58 104 56 188q2 84 -39 136q-41 47 -107 47q-90 -4 -119 -76q-30 -70 17 -137q43 -47 28 -121q-16 -72 -114 -182z" />
    <glyph glyph-name="Lslash" unicode="&#x201a;" horiz-adv-x="520" 
d="M170 -334v0q129 119 186 228q58 104 56 188q2 84 -39 135q-41 47 -107 47q-90 -4 -119 -76q-30 -69 17 -137q43 -47 28 -121q-16 -71 -114 -182z" />
    <glyph glyph-name="apple" unicode="&#x201c;" horiz-adv-x="936" 
d="M856 1458l-92 82v0q-127 -115 -182 -221q-58 -109 -60 -193q0 -84 41 -133q39 -51 103 -51q90 2 122 78q29 72 -18 135q-43 51 -27 125q15 72 113 178v0zM440 1458l-92 82v0q-127 -115 -182 -221q-55 -109 -57 -193q0 -84 40 -133q39 -51 103 -51q92 2 121 78
q28 72 -19 135q-43 51 -26 125q14 72 112 178v0z" />
    <glyph glyph-name="Ograve" unicode="&#x201d;" horiz-adv-x="936" 
d="M170 928v0q129 118 186 227q58 104 56 188q2 84 -39 136q-41 47 -107 47q-90 -4 -119 -76q-30 -70 17 -137q43 -47 28 -121q-16 -72 -114 -182zM584 928v0q131 118 188 227q57 104 55 188q2 84 -39 136q-41 47 -106 47q-90 -4 -119 -76q-14 -33 -12 -68q2 -37 26 -69
q46 -47 31 -121q-16 -72 -117 -182z" />
    <glyph glyph-name="lslash" unicode="&#x201e;" horiz-adv-x="936" 
d="M170 -334v0q129 119 186 228q58 104 56 188q2 84 -39 135q-41 47 -107 47q-90 -4 -119 -76q-30 -69 17 -137q43 -47 28 -121q-16 -71 -114 -182zM584 -334v0q131 119 188 228q57 104 55 188q2 84 -39 135q-41 47 -106 47q-90 -4 -119 -76q-14 -32 -12 -67q2 -37 26 -70
q46 -47 31 -121q-16 -71 -117 -182z" />
    <glyph glyph-name="ae" unicode="&#x2020;" horiz-adv-x="967" 
d="M887 960v170h-316l43 365h-262l45 -365h-315v-170h315l-45 -286l53 -682h158l51 682l-43 286h316z" />
    <glyph glyph-name="ogonek" unicode="&#x2021;" horiz-adv-x="967" 
d="M885 367v170h-314l43 221l-43 221h316v168h-316l43 348h-262l43 -348h-313v-168h313l-43 -221l43 -221h-313v-170h313l-45 -367h266l-45 367h314z" />
    <glyph glyph-name="radical" unicode="&#x2022;" horiz-adv-x="881" 
d="M430 872q-117 -2 -192 -79q-78 -76 -80 -193q2 -113 80 -190q75 -82 192 -82t193 82q77 77 79 190q-2 117 -79 193q-76 77 -193 79v0z" />
    <glyph glyph-name="Aacute" unicode="&#x2026;" horiz-adv-x="1415" 
d="M242 260q-58 0 -97 -39q-43 -41 -43 -102q0 -58 43 -96q39 -41 97 -43q61 2 102 43q39 38 39 96q0 61 -39 102q-41 39 -102 39v0zM698 260q-57 0 -96 -39q-43 -41 -43 -102q0 -58 43 -96q39 -41 96 -43q62 2 103 43q39 38 39 96q0 61 -39 102q-41 39 -103 39v0zM1157 260
q-59 0 -98 -39q-43 -41 -43 -102q0 -58 43 -96q39 -41 98 -43q59 2 100 43q39 38 39 96q0 61 -39 102q-41 39 -100 39v0z" />
    <glyph glyph-name="Scaron" unicode="&#x2030;" horiz-adv-x="2199" 
d="M698 1092q-2 176 -84 253q-82 74 -217 74q-129 0 -219 -94q-94 -94 -96 -262q6 -332 295 -330q137 0 229 96q90 95 92 263v0zM516 1079q-2 -190 -129 -192q-125 -2 -123 190q0 88 35 137q35 50 92 50q70 0 98 -41q27 -43 27 -144v0zM1403 324q-2 174 -84 251
q-86 74 -217 74q-129 -2 -219 -92q-95 -94 -97 -262q7 -332 295 -332q137 2 230 98q90 95 92 263v0zM1221 309q-3 -188 -132 -190q-122 -2 -120 188q0 90 34 139q35 50 91 50q129 2 127 -187v0zM2097 324q-2 174 -84 251q-82 74 -217 74q-129 -2 -219 -92q-94 -94 -96 -262
q6 -332 297 -332q135 2 227 98q90 95 92 263v0zM1915 309q-2 -188 -129 -190q-125 -2 -123 188q0 90 35 139q34 50 92 50q127 2 125 -187v0zM332 -51l975 1370l-156 114v0l-975 -1370l156 -114v0z" />
    <glyph glyph-name="dotaccent" unicode="&#x2039;" horiz-adv-x="641" 
d="M506 803l-166 86v0l-242 -383l236 -379v0l172 90l-197 289z" />
    <glyph glyph-name="ring" unicode="&#x203a;" horiz-adv-x="641" 
d="M301 127l242 383l-236 379v0l-172 -88l195 -291l-195 -295l166 -88v0z" />
    <glyph glyph-name="guillemotright" unicode="&#x2122;" horiz-adv-x="1421" 
d="M1331 807l-92 575h-197l-84 -293l-16 -84v0l-20 91l-80 286h-199l-90 -575h151l43 307l7 74v0l20 -86l80 -295h156l82 289l20 92v0l12 -103l41 -278h166zM526 1249v133h-450v-133h147v-442h160v442h143z" />
    <glyph glyph-name="quoteleft" unicode="&#x2202;" horiz-adv-x="1818" 
d="M1739 559q-4 475 -375 479q-234 -4 -324 -207h-4q17 93 17 195v453q-193 30 -359 32q-489 -10 -483 -385v-108h-195v-170h195v-848h217v848h254v170h-254v94q0 223 246 221q82 0 162 -14v-1292q151 -43 366 -43q526 12 537 575v0zM1507 539q-2 -203 -80 -293
q-77 -90 -213 -88q-92 0 -161 20v316q0 137 65 247q66 111 189 115q200 -2 200 -317v0z" />
    <glyph glyph-name="perthousand" unicode="&#x2206;" horiz-adv-x="1515" 
d="M1456 0l-588 1433h-225l-582 -1433h1395zM745 1163l387 -964h-765l378 964v0z" />
    <glyph glyph-name="divide" unicode="&#x220f;" horiz-adv-x="1210" 
d="M1053 -96v1114h-625v59q-4 250 281 254q122 -2 249 -41l39 182q-139 39 -301 39q-489 -4 -485 -452v-41h-195v-170h195v-848h217v848h408v-965q0 -118 -31 -166q-35 -47 -123 -47q-66 0 -125 23l-16 -189q67 -18 141 -18q209 0 291 109q82 106 80 309v0z" />
    <glyph glyph-name="quoteright" unicode="&#x2211;" horiz-adv-x="1847" 
d="M1689 0v713q0 139 -65 231q-68 92 -238 94q-251 -6 -346 -211l-4 2q17 97 17 205v445q-193 30 -359 32q-489 -10 -483 -385v-108h-195v-170h195v-848h217v848h254v170h-254v94q0 223 246 221q82 0 162 -14v-1319h217v489q0 158 77 263q74 102 191 104q88 0 121 -51
q30 -53 30 -150v-655h217z" />
    <glyph glyph-name="macron" unicode="&#x2215;" horiz-adv-x="872" 
d="M145 -256l873 1726l-178 84v0l-875 -1726l180 -84v0z" />
    <glyph glyph-name="caron" unicode="&#x2219;" horiz-adv-x="512" 
d="M256 737q-64 -2 -104 -43q-46 -43 -46 -106q0 -64 46 -105q40 -43 104 -43q63 0 106 43q41 41 43 105q-2 63 -43 106q-43 41 -106 43v0z" />
    <glyph glyph-name="periodcentered" unicode="&#x221a;" horiz-adv-x="1253" 
d="M1210 1552h-239l-307 -1112q-27 -94 -50 -202h-4q-28 110 -63 217l-180 563h-363v-166h182l293 -852h254z" />
    <glyph glyph-name="OE" unicode="&#x221e;" horiz-adv-x="2005" 
d="M1900 567q0 152 -96 250q-98 96 -287 98q-135 -2 -266 -71q-129 -68 -241 -158v0q-263 223 -514 229q-179 -2 -283 -104q-109 -102 -109 -262q0 -146 97 -246q92 -102 282 -104q140 2 269 71q129 70 243 156v0q72 -49 135 -90q66 -41 127 -72q125 -65 244 -65
q195 2 297 110q102 107 102 258v0zM1687 557q0 -66 -43 -115q-45 -51 -131 -51q-73 0 -155 49q-82 45 -185 121q95 72 181 119q84 45 153 45q86 0 133 -45q47 -47 47 -123v0zM831 553q-94 -72 -178 -115q-82 -47 -155 -47q-86 0 -131 49q-48 45 -48 119q0 70 46 117
q43 47 129 49q73 0 157 -47q82 -47 180 -125v0z" />
    <glyph glyph-name="ydieresis" unicode="&#x222b;" horiz-adv-x="1712" 
d="M836 1319v-1319h217v516v0l350 -516h278l-405 553l377 465h-269l-331 -436v0v897q-193 30 -359 32q-489 -10 -483 -385v-108h-195v-170h195v-848h217v848h254v170h-254v94q0 223 246 221q82 0 162 -14v0z" />
    <glyph glyph-name="quotedblbase" unicode="&#x2248;" horiz-adv-x="1229" 
d="M1087 672l-73 149v0q-43 -41 -92 -63q-50 -27 -103 -27q-51 0 -94 21q-43 18 -88 41q-45 26 -98 45q-56 16 -125 16q-80 -2 -152 -37q-74 -35 -127 -86l70 -147v0q41 34 92 61q49 23 108 25q64 0 111 -17q45 -18 88 -43q43 -22 94 -41q49 -20 115 -20q86 0 158 37
q67 34 116 86v0zM1087 287l-69 147v0q-94 -80 -197 -80q-61 0 -106 21q-47 18 -92 41q-43 26 -95 45q-51 16 -123 16q-83 -2 -151 -39q-72 -39 -119 -84l72 -149v0q41 35 90 61q49 27 108 27q58 0 103 -17q45 -18 88 -43q43 -22 96 -41q51 -20 121 -20q78 0 149 35
q72 33 125 80v0z" />
    <glyph glyph-name="Agrave" unicode="&#x2260;" horiz-adv-x="1339" 
d="M1393 1491q-80 18 -166 18q-164 -2 -254 -67v0q-142 49 -301 49q-252 -2 -357 -121q-106 -121 -104 -303v-49h-195v-170h195v-848h217v848h401v-848h220v848h262v170h-262v82q-3 233 188 231q70 0 139 -20zM864 1276q-35 -72 -35 -180v-78h-401v65q-4 228 233 230
q97 2 203 -37v0z" />
    <glyph glyph-name="endash" unicode="&#x2264;" horiz-adv-x="1829" 
d="M1673 0v1018h-624v59q-5 250 282 254q123 -2 254 -41l41 182q-145 39 -305 39q-221 -2 -328 -80v0q-137 58 -319 60q-252 -2 -359 -121q-106 -117 -104 -303v-49h-195v-170h195v-848h217v848h401v-848h220v848h405v-848h219zM874 1272q-47 -103 -45 -213v-41h-401v65
q-4 228 233 230q99 2 213 -41v0z" />
    <glyph glyph-name="emdash" unicode="&#x2265;" horiz-adv-x="1829" 
d="M1673 0v1479q-194 30 -360 32q-213 0 -326 -78v0q-137 56 -313 58q-252 -2 -359 -121q-106 -117 -104 -303v-49h-195v-170h195v-848h217v848h401v-848h220v848h251v170h-251v94q0 223 243 221q82 0 162 -14v-1319h219zM862 1278q-33 -66 -33 -152v-108h-401v65
q-4 228 233 230q97 2 201 -35v0z" />
    <glyph glyph-name="dotlessi" unicode="&#x25ca;" horiz-adv-x="1274" 
d="M1216 686l-516 715h-133l-510 -705l516 -714h138zM627 1161l350 -483l-330 -457v0l-348 481l328 459v0z" />
    <glyph glyph-name="cedilla" unicode="&#xf001;" horiz-adv-x="1212" 
d="M1053 0v1018h-625v59q-4 250 281 254q122 -2 249 -41l39 182q-139 39 -301 39q-489 -4 -485 -452v-41h-195v-170h195v-848h217v848h408v-848h217z" />
    <glyph glyph-name="hungarumlaut" unicode="&#xf002;" horiz-adv-x="1212" 
d="M1053 0v1479q-193 30 -359 32q-489 -10 -483 -385v-108h-195v-170h195v-848h217v848h254v170h-254v94q0 223 246 221q82 0 162 -14v-1319h217z" />
    <glyph glyph-name="exclam" horiz-adv-x="0" 
 />
    <glyph glyph-name="glyph3" horiz-adv-x="819" 
 />
  </font>
</defs>
</svg>
