<?xml version="1.0" standalone="no"?>
<!DOCTYPE svg PUBLIC "-//W3C//DTD SVG 1.1//EN" "http://www.w3.org/Graphics/SVG/1.1/DTD/svg11.dtd" >
<svg xmlns="http://www.w3.org/2000/svg" xmlns:xlink="http://www.w3.org/1999/xlink" version="1.1">
<metadata>
Created by FontForge 20161013 at Fri Jan  1 02:30:17 1904
 By ,,,
</metadata>
<defs>
<font id="TheSansSemiLight-Plain" horiz-adv-x="1034" >
  <font-face 
    font-family="TheSansSemiLight-Plain"
    font-weight="400"
    font-stretch="normal"
    units-per-em="2048"
    panose-1="2 11 5 0 0 0 0 0 0 0"
    ascent="1638"
    descent="-410"
    x-height="1018"
    cap-height="1382"
    bbox="-143 -534 2048 1810"
    underline-thickness="41"
    underline-position="-367"
    unicode-range="U+0020-F002"
  />
<missing-glyph horiz-adv-x="748" 
d="M68 0v1365h544v-1365h-544zM136 68h408v1229h-408v-1229z" />
    <glyph glyph-name=".notdef" horiz-adv-x="748" 
d="M68 0v1365h544v-1365h-544zM136 68h408v1229h-408v-1229z" />
    <glyph glyph-name="glyph1" horiz-adv-x="0" 
 />
    <glyph glyph-name="nonmarkingreturn" horiz-adv-x="682" 
 />
    <glyph glyph-name="equal" unicode=" " horiz-adv-x="446" 
 />
    <glyph glyph-name="greater" unicode="!" horiz-adv-x="614" 
d="M399 1440h-184l29 -1112h127zM307 199q-47 0 -78 -29q-32 -33 -32 -80q0 -45 32 -74q31 -30 78 -32q47 2 80 32q29 29 29 74q0 47 -29 80q-33 29 -80 29v0z" />
    <glyph glyph-name="question" unicode="&#x22;" horiz-adv-x="719" 
d="M281 1507h-168l28 -452h111zM604 1507h-166l27 -452h112z" />
    <glyph glyph-name="at" unicode="#" horiz-adv-x="1384" 
d="M1266 403v107h-306l43 409h318v109h-305l37 354h-129l-39 -354h-318l37 354h-129l-37 -354h-319v-109h307l-43 -409h-322v-107h310l-43 -403h131l43 403h317l-43 -403h131l43 403h316zM831 510h-319l43 409h319z" />
    <glyph glyph-name="A" unicode="$" horiz-adv-x="999" 
d="M881 358q0 76 -25 131q-25 54 -68 93q-41 38 -94 69q-53 29 -112 49q-56 25 -109 47q-53 25 -96 52q-43 28 -68 67q-28 37 -28 88q-2 78 61 135q59 58 209 60q119 -2 233 -37l11 139q-93 23 -218 25v213h-118v-219q-150 -21 -238 -111q-94 -90 -94 -225q2 -150 96 -223
q43 -37 96 -64q52 -29 107 -53q55 -21 108 -43q54 -25 95 -51q43 -27 67 -68q25 -39 25 -96q-2 -117 -80 -168q-78 -53 -201 -53q-143 0 -270 47l-8 -148q110 -30 256 -30v-267h116v273q342 71 347 368v0z" />
    <glyph glyph-name="B" unicode="%" horiz-adv-x="1624" 
d="M729 1089q-2 175 -90 248q-86 70 -219 70q-131 0 -225 -86q-101 -90 -103 -260q2 -170 90 -246q86 -78 215 -76q137 0 234 92q96 91 98 258v0zM588 1077q-4 -221 -183 -225q-174 0 -172 223q0 100 54 160q47 59 123 59q178 2 178 -217v0zM365 -45l968 1395l-108 77v0
l-969 -1394l109 -78v0zM1503 326q-2 174 -88 247q-88 70 -221 70q-131 0 -225 -86q-101 -90 -103 -260q2 -170 90 -246q86 -76 215 -76q138 2 234 93q96 90 98 258v0zM1362 313q-4 -221 -182 -225q-172 0 -170 223q0 101 51 160q47 59 123 59q178 2 178 -217v0z" />
    <glyph glyph-name="C" unicode="&#x26;" horiz-adv-x="1626" 
d="M1403 -39l98 121q-119 80 -287 215q195 252 191 616h-156q10 -163 -31 -299q-40 -135 -114 -235v2q-275 231 -484 459q142 110 201 206q58 99 58 201q0 117 -78 193q-80 73 -234 75q-166 -2 -256 -88q-92 -86 -92 -213q-2 -77 43 -163t156 -215q-131 -99 -213 -205
q-84 -109 -84 -252q0 -174 117 -285q112 -112 325 -114q342 6 545 204v0q133 -108 295 -223v0zM727 1227q0 -82 -47 -152q-49 -72 -146 -147v0q-88 104 -124 174q-39 69 -37 119q0 79 51 126q49 48 127 48q92 -2 135 -48q41 -47 41 -120v0zM1003 268q-69 -63 -172 -108
q-102 -49 -237 -49q-146 2 -229 86q-86 84 -86 202q-5 166 225 346v0q207 -229 499 -477v0z" />
    <glyph glyph-name="D" unicode="'" horiz-adv-x="393" 
d="M281 1507h-168l28 -452h111z" />
    <glyph glyph-name="E" unicode="(" horiz-adv-x="618" 
d="M588 -395q-283 446 -281 987q0 526 277 977h-144q-291 -543 -280 -987q-2 -217 55 -459t223 -518h150z" />
    <glyph glyph-name="F" unicode=")" horiz-adv-x="618" 
d="M473 582q10 446 -283 987h-143q275 -453 277 -979q0 -539 -279 -985h145q168 276 230 518q55 242 53 459v0z" />
    <glyph glyph-name="G" unicode="*" horiz-adv-x="756" 
d="M600 995l59 105l-211 98l211 96l-57 101v0l-190 -131v0l18 231h-117l19 -231v0l-189 131v0l-59 -101l211 -98l-211 -98l57 -103v0l191 133v0l-21 -231h119l-20 231v0l190 -133v0z" />
    <glyph glyph-name="H" unicode="+" horiz-adv-x="1151" 
d="M1092 463v129h-445v461h-145v-461h-445v-129h445v-463h145v463h445z" />
    <glyph glyph-name="I" unicode="," horiz-adv-x="444" 
d="M119 -301v0q108 104 160 197q49 90 51 159q2 68 -29 109q-31 39 -84 39q-63 -2 -86 -54q-25 -51 10 -104q35 -39 19 -111q-17 -71 -109 -176z" />
    <glyph glyph-name="J" unicode="-" horiz-adv-x="672" 
d="M573 448v123h-475v-123h475z" />
    <glyph glyph-name="K" unicode="." horiz-adv-x="444" 
d="M221 205q-47 -2 -78 -31q-32 -33 -32 -80t32 -78q31 -30 78 -32q51 2 82 32q29 31 31 78q-2 47 -31 80q-31 29 -82 31v0z" />
    <glyph glyph-name="L" unicode="/" horiz-adv-x="852" 
d="M770 1382h-145l-529 -1382h148z" />
    <glyph glyph-name="M" unicode="0" horiz-adv-x="1259" 
d="M1149 545q0 235 -127 381q-127 143 -377 145q-219 -2 -371 -145q-157 -148 -161 -408q2 -270 141 -401q135 -135 354 -135q228 2 381 153q156 148 160 410v0zM991 528q-2 -190 -108 -301q-105 -114 -260 -114q-183 2 -269 123q-88 118 -86 296q2 193 109 301
q102 107 258 109q182 -2 270 -119q86 -114 86 -295v0z" />
    <glyph glyph-name="N" unicode="1" horiz-adv-x="688" 
d="M485 0v1053h-127l-301 -117l29 -133v0l242 102v0v-905h157z" />
    <glyph glyph-name="O" unicode="2" horiz-adv-x="987" 
d="M879 0v139q-381 0 -557 -8l2 4l243 199q262 207 262 416q0 143 -92 231q-94 86 -278 88q-180 -2 -316 -74l23 -133v0q47 31 119 53q69 23 145 25q115 -2 174 -59q60 -60 60 -158q0 -92 -66 -172t-184 -178l-297 -250v-123h762z" />
    <glyph glyph-name="P" unicode="3" horiz-adv-x="946" 
d="M825 55q-6 285 -291 344v2q117 47 187 136q69 88 72 208q0 138 -91 230q-90 92 -288 94q-154 0 -287 -59l14 -134v0q111 62 246 64q238 -4 244 -219q-2 -144 -123 -215q-123 -72 -334 -72v-123q223 23 354 -45q129 -69 131 -235q0 -131 -92 -215q-92 -88 -274 -90
q-103 2 -176 24l-17 -139q82 -19 174 -21q267 2 408 136q143 129 143 329v0z" />
    <glyph glyph-name="Q" unicode="4" horiz-adv-x="1106" 
d="M1077 0v139h-258v916h-201l-587 -928l26 -127h611v-399h151v399h258zM668 139q-203 0 -486 -4l484 766h2v-762z" />
    <glyph glyph-name="R" unicode="5" horiz-adv-x="960" 
d="M848 76q0 188 -133 307q-135 119 -398 121v399h488v150h-633v-684q55 2 107 2q200 -2 303 -92q102 -89 102 -230q0 -137 -98 -227q-101 -90 -301 -92q-78 2 -140 14l-16 -143q72 -11 143 -11q258 5 416 140q158 133 160 346v0z" />
    <glyph glyph-name="S" unicode="6" horiz-adv-x="1192" 
d="M1085 469q-8 420 -424 430q-251 -4 -354 -184l-2 2q12 57 17 86q38 231 165 370q127 140 359 142q28 0 55 -2q25 -2 49 -6v135q-43 4 -86 4q-313 0 -510 -215q-205 -217 -207 -662q5 -577 451 -587q221 2 354 139q131 133 133 348v0zM919 442q-2 -143 -79 -235
q-78 -94 -217 -96q-152 2 -226 108q-73 103 -73 242q0 119 77 209q74 92 228 94q284 -6 290 -322v0z" />
    <glyph glyph-name="T" unicode="7" horiz-adv-x="940" 
d="M879 922v131h-826v-150q127 0 359 2q229 0 295 2q-250 -551 -447 -1306h176q174 739 443 1321v0z" />
    <glyph glyph-name="U" unicode="8" horiz-adv-x="1122" 
d="M995 358q0 78 -24 136q-29 59 -72 104q-43 47 -96 86q-56 37 -115 68q283 165 281 374q-2 144 -105 236q-102 88 -293 90q-192 -2 -307 -98q-115 -99 -117 -258q5 -226 273 -367l2 -2q-113 -66 -201 -160q-92 -94 -94 -237q0 -150 104 -246q105 -100 312 -102
q188 2 319 98t133 278v0zM807 1110q0 -80 -53 -145q-58 -68 -187 -150h-2q-121 66 -186 135q-70 68 -70 158q0 94 68 156q65 61 184 63q121 -2 184 -63q62 -62 62 -154v0zM831 334q-2 -105 -77 -164q-76 -59 -191 -59q-270 6 -274 237q0 98 71 174q70 74 183 139h2
q67 -32 121 -67q53 -37 90 -76q75 -76 75 -184v0z" />
    <glyph glyph-name="V" unicode="9" horiz-adv-x="1192" 
d="M1046 475q-14 600 -458 594q-217 -2 -346 -137q-131 -137 -133 -350q6 -424 419 -433q236 5 346 168h2v-26q-2 -15 -6 -31q-6 -33 -12 -55q-86 -471 -534 -477q-29 0 -64 6t-65 12v-145q67 -11 118 -11q713 0 733 885v0zM868 571q0 -112 -82 -196q-82 -86 -221 -88
q-291 2 -293 323q0 144 84 236q80 92 213 94q148 -2 226 -102q73 -101 73 -267v0z" />
    <glyph glyph-name="W" unicode=":" horiz-adv-x="512" 
d="M256 813q-47 0 -78 -33q-33 -33 -33 -80t33 -77q31 -33 78 -33t80 33q29 30 31 77q-2 47 -31 80q-33 33 -80 33v0zM256 205q-47 -2 -78 -31q-33 -33 -33 -80t33 -78q31 -30 78 -32q47 2 80 32q29 31 31 78q-2 47 -31 80q-33 29 -80 31v0z" />
    <glyph glyph-name="X" unicode=";" horiz-adv-x="512" 
d="M367 700q-2 47 -31 80q-33 33 -80 33t-78 -33q-33 -33 -33 -80t33 -77q31 -33 78 -33t80 33q29 30 31 77v0zM254 203q-64 -2 -86 -54q-25 -51 10 -104q33 -39 21 -111q-15 -71 -111 -176l68 -59v0q108 104 159 197q50 90 52 159q2 68 -29 109q-31 39 -84 39v0z" />
    <glyph glyph-name="Y" unicode="&#x3c;" horiz-adv-x="1022" 
d="M770 1098l-645 -584l645 -571v0l98 106l-546 467l546 483l-98 99v0z" />
    <glyph glyph-name="Z" unicode="=" horiz-adv-x="1212" 
d="M1059 623v129h-905v-129h905zM1059 289v129h-905v-129h905z" />
    <glyph glyph-name="bracketleft" unicode="&#x3e;" horiz-adv-x="1022" 
d="M252 -57l645 583l-645 572v0l-98 -107l546 -467l-546 -483l98 -98v0z" />
    <glyph glyph-name="backslash" unicode="?" horiz-adv-x="858" 
d="M725 1061q-2 153 -148 262q-147 108 -395 127l-18 -139q176 -15 282 -86q107 -72 109 -181q-2 -84 -61 -149q-27 -33 -62 -68q-33 -37 -67 -73q-31 -37 -58 -76q-26 -43 -43 -94q-35 -103 15 -256h151q-45 147 -8 239q16 49 45 88q29 37 61 72q35 37 70 72q35 34 63 73
q29 41 48 86q16 45 16 103v0zM471 90q0 47 -29 80q-32 29 -80 29q-47 0 -77 -29q-33 -33 -33 -80q0 -45 33 -74q30 -30 77 -32q48 2 80 32q29 29 29 74v0z" />
    <glyph glyph-name="bracketright" unicode="@" horiz-adv-x="1724" 
d="M1567 807q0 250 -164 424q-166 176 -484 180q-315 -4 -534 -217q-225 -215 -229 -559q2 -299 182 -483q178 -189 493 -191q76 0 162 12q84 11 148 29v125q-144 -45 -291 -45q-264 2 -408 162q-147 155 -147 403q2 289 182 465q176 178 436 180q269 -4 394 -149
q122 -146 122 -342q-4 -338 -223 -334q-69 0 -98 47q-31 47 -12 160l65 362q-102 21 -225 23q-197 -2 -299 -140q-107 -137 -107 -335q-6 -230 181 -232q100 2 172 68q71 61 98 133h6q-14 -76 31 -135q45 -64 160 -66q176 0 282 113q105 112 107 342v0zM1016 942l-19 -86
q-35 -172 -100 -276q-66 -107 -152 -109q-79 0 -77 139q0 113 57 226q29 53 74 83q45 33 106 33q66 0 111 -10v0z" />
    <glyph glyph-name="asciicircum" unicode="A" horiz-adv-x="1251" 
d="M1225 0l-514 1382h-170l-514 -1382h161l123 340h615l120 -340h179zM883 465h-529l201 547q37 100 61 200h4q23 -102 62 -202z" />
    <glyph glyph-name="underscore" unicode="B" horiz-adv-x="1159" 
d="M1046 408q0 114 -67 206q-72 90 -225 115v4q254 84 260 328q2 321 -443 327q-245 -2 -385 -6v-1382q193 -4 334 -6q166 2 268 47q103 41 160 106q57 66 80 136q18 69 18 125v0zM850 1034q-2 -256 -375 -260q-74 0 -131 2v481q94 4 199 4q180 0 247 -63q35 -31 50 -72
q10 -43 10 -92v0zM883 403q0 -120 -82 -200q-84 -82 -269 -82q-133 0 -188 12v520q74 2 133 2q176 0 291 -51q113 -55 115 -201v0z" />
    <glyph glyph-name="grave" unicode="C" horiz-adv-x="1208" 
d="M1108 57l-16 140v0q-148 -72 -326 -74q-500 6 -496 561q-2 244 113 408q113 165 362 169q160 0 330 -53v0l17 146q-156 39 -320 41q-350 -5 -512 -211q-162 -203 -160 -525q-4 -659 625 -675q219 2 383 73v0z" />
    <glyph glyph-name="a" unicode="D" horiz-adv-x="1399" 
d="M1296 704q-10 691 -710 684q-228 -4 -400 -6v-1382q136 -2 336 -6q348 0 559 178t215 532v0zM1132 694q-2 -293 -163 -432q-160 -139 -426 -139q-103 0 -199 14v1118q96 4 225 6q563 -2 563 -567v0z" />
    <glyph glyph-name="b" unicode="E" 
d="M883 0v131h-539v518h512v127h-512v479h539v127h-697v-1382h697z" />
    <glyph glyph-name="c" unicode="F" horiz-adv-x="962" 
d="M879 1253v129h-693v-1382h158v643h506v127h-506v483h535z" />
    <glyph glyph-name="d" unicode="G" horiz-adv-x="1403" 
d="M1182 1194l24 147q-184 60 -377 60q-346 -4 -538 -209q-195 -203 -197 -526q2 -324 189 -502q182 -180 493 -182q229 0 451 77v637h-158v-538q-121 -41 -268 -41q-246 0 -391 149q-148 146 -150 420q4 295 168 438q160 144 385 144q188 -2 369 -74v0z" />
    <glyph glyph-name="e" unicode="H" horiz-adv-x="1438" 
d="M1251 0v1382h-155v-600h-752v600h-158v-1382h158v651h752v-651h155z" />
    <glyph glyph-name="f" unicode="I" horiz-adv-x="530" 
d="M344 0v1382h-158v-1382h158z" />
    <glyph glyph-name="g" unicode="J" horiz-adv-x="670" 
d="M483 350v1032h-155v-1020q0 -143 -45 -194q-47 -51 -134 -49q-81 0 -147 24v-141q66 -14 147 -16q340 4 334 364v0z" />
    <glyph glyph-name="h" unicode="K" horiz-adv-x="1186" 
d="M1149 0l-635 713l614 669h-194l-590 -661v0v661h-158v-1382h158v694v0l588 -694h217z" />
    <glyph glyph-name="i" unicode="L" horiz-adv-x="870" 
d="M856 0v133h-512v1249h-158v-1382h670z" />
    <glyph glyph-name="j" unicode="M" horiz-adv-x="1827" 
d="M1714 0l-205 1382h-205l-323 -948q-49 -129 -76 -254h-4q-22 117 -78 268l-315 934h-199l-196 -1382h161l101 836q26 204 37 362h2q30 -133 88 -293l307 -905h178l324 967q47 143 67 231h4q11 -104 43 -346l123 -852h166z" />
    <glyph glyph-name="k" unicode="N" horiz-adv-x="1456" 
d="M1270 0v1382h-154v-379q0 -456 14 -813v0q-79 148 -170 295l-565 897h-209v-1382h154v424q-2 450 -12 776v0q34 -68 73 -135q39 -70 84 -148l576 -917h209z" />
    <glyph glyph-name="l" unicode="O" horiz-adv-x="1444" 
d="M1352 707q-13 686 -611 694q-274 0 -456 -187q-189 -186 -193 -538q0 -318 154 -502q149 -190 458 -192q275 2 459 190q184 186 189 535v0zM1184 682q-4 -274 -140 -418q-135 -145 -323 -145q-234 2 -346 166q-115 157 -115 419q2 275 141 418q133 144 320 144
q457 -9 463 -584v0z" />
    <glyph glyph-name="m" unicode="P" horiz-adv-x="1067" 
d="M993 995q-4 383 -481 393q-178 0 -326 -6v-1382h158v545q57 -6 119 -6q231 2 381 129q147 122 149 327v0zM829 973q-6 -287 -360 -303q-68 0 -125 8v579q61 2 147 2q340 -2 338 -286v0z" />
    <glyph glyph-name="n" unicode="Q" horiz-adv-x="1442" 
d="M1352 707q-13 686 -611 694q-274 0 -456 -187q-189 -186 -193 -538q0 -318 154 -502q149 -190 458 -192q275 2 459 190q184 186 189 535v0zM1442 -365v142v0q-115 -15 -205 0q-90 14 -176 37q-84 22 -176 37q-95 10 -213 -5v-141v0q102 14 190 0q86 -14 170 -37
q84 -22 184 -35q99 -14 226 2v0zM1184 682q-4 -274 -140 -418q-135 -145 -323 -145q-234 2 -346 166q-115 157 -115 419q2 275 141 418q133 144 320 144q457 -9 463 -584v0z" />
    <glyph glyph-name="o" unicode="R" horiz-adv-x="1122" 
d="M1057 0l-416 506q-57 69 -121 143q195 10 320 109q127 98 129 282q-2 193 -129 273q-127 75 -328 75q-207 0 -326 -6v-1382h158v639h6l504 -639h203zM805 1018q-4 -254 -336 -262q-92 0 -125 4v497q59 7 133 7q326 6 328 -246v0z" />
    <glyph glyph-name="p" unicode="S" horiz-adv-x="1032" 
d="M915 399q-2 160 -98 240q-47 43 -102 72q-56 26 -119 51q-59 24 -115 49q-57 25 -104 53q-45 31 -74 74q-29 39 -29 96q2 230 308 236q127 -2 249 -37l9 141q-121 27 -248 27q-227 -2 -352 -109q-127 -104 -127 -274q2 -160 102 -236q47 -39 104 -67q56 -31 115 -56
q64 -22 119 -47q55 -24 102 -55q47 -29 74 -72q25 -45 25 -106q-2 -139 -97 -199q-92 -63 -231 -61q-154 2 -283 51l-8 -154q119 -32 277 -34q239 2 370 118q131 115 133 299v0z" />
    <glyph glyph-name="q" unicode="T" horiz-adv-x="1063" 
d="M1024 1251v131h-985v-131h414v-1251h155v1251h416z" />
    <glyph glyph-name="r" unicode="U" horiz-adv-x="1427" 
d="M1241 524v858h-154v-870q0 -219 -92 -311q-96 -92 -286 -90q-111 0 -181 30q-73 29 -112 78q-19 25 -31 55q-14 29 -25 60q-8 33 -12 69v37q-4 15 -4 33v909h-158v-923q0 -90 21 -174q20 -84 76 -152q55 -67 155 -108q101 -41 258 -43q543 4 545 542v0z" />
    <glyph glyph-name="s" unicode="V" horiz-adv-x="1255" 
d="M1225 1382h-164l-334 -907q-61 -158 -100 -307h-2q-48 164 -97 295l-323 919h-176l505 -1382h173z" />
    <glyph glyph-name="t" unicode="W" horiz-adv-x="1950" 
d="M1872 1382h-154l-260 -1003q-12 -51 -22 -103q-13 -51 -23 -106h-2q-23 123 -55 233l-287 979h-184l-273 -966q-32 -119 -57 -248h-2q-21 125 -57 260l-250 954h-168l370 -1382h191l280 995q31 115 50 221h2q18 -104 51 -221l287 -995h194z" />
    <glyph glyph-name="u" unicode="X" horiz-adv-x="1202" 
d="M1161 0l-471 723l422 659h-176l-340 -546v0l-346 546h-180l430 -667l-459 -715h180l371 596v0l375 -596h194z" />
    <glyph glyph-name="v" unicode="Y" horiz-adv-x="1079" 
d="M1055 1382h-166l-228 -471q-67 -137 -120 -266h-2q-25 62 -50 123q-26 59 -57 121l-235 493h-172l432 -882v-500h155v502z" />
    <glyph glyph-name="w" unicode="Z" horiz-adv-x="1106" 
d="M1014 0v143h-377q-285 0 -363 -6q45 68 88 133l646 996v116h-891v-139h389q215 0 323 4q-61 -88 -122 -180l-613 -952v-115h920z" />
    <glyph glyph-name="x" unicode="[" horiz-adv-x="653" 
d="M575 -401v118h-245v1741h245v117h-387v-1976h387z" />
    <glyph glyph-name="y" unicode="\" horiz-adv-x="836" 
d="M752 0l-533 1382h-139l528 -1382h144z" />
    <glyph glyph-name="z" unicode="]" horiz-adv-x="653" 
d="M467 -401v1976h-387v-117h244v-1741h-244v-118h387z" />
    <glyph glyph-name="braceleft" unicode="^" horiz-adv-x="1096" 
d="M842 707l114 61l-354 614h-127l-340 -618l109 -57v0l290 557v0l308 -557v0z" />
    <glyph glyph-name="bar" unicode="_" horiz-adv-x="1024" 
d="M1024 -516v121h-1024v-121h1024z" />
    <glyph glyph-name="braceright" unicode="`" horiz-adv-x="754" 
d="M487 1186l70 86l-266 227v0l-86 -106l282 -207v0z" />
    <glyph glyph-name="asciitilde" unicode="a" horiz-adv-x="1065" 
d="M881 0q-5 145 -5 305v399q0 37 -2 72q-2 33 -12 64q-16 61 -59 104q-39 45 -111 70q-69 22 -176 22q-207 -4 -352 -76l14 -135v0q150 88 311 88q131 0 185 -61q47 -62 47 -178v-84q-612 -10 -619 -361q2 -120 80 -182q76 -65 199 -65q133 2 225 69q90 68 129 164h4
q-12 -94 -10 -215h152zM721 461q-2 -137 -80 -242q-82 -110 -219 -113q-74 0 -119 43q-47 41 -47 109q-4 78 90 147q51 35 143 54q93 18 232 18v-16z" />
    <glyph glyph-name="Adieresis" unicode="b" horiz-adv-x="1143" 
d="M1049 555q-5 479 -375 481q-250 -4 -348 -246l-4 3q18 88 18 186v516h-154v-1468q146 -39 338 -39q512 6 525 567v0zM887 543q-8 -441 -348 -434q-113 0 -199 26v356q0 146 76 277q37 63 96 102q55 39 131 39q246 -6 244 -366v0z" />
    <glyph glyph-name="Aring" unicode="c" horiz-adv-x="901" 
d="M833 43l-14 133v0q-110 -57 -256 -57q-180 2 -248 112q-65 109 -63 269q0 186 84 297q80 108 244 110q131 -2 233 -45l16 135q-110 35 -239 35q-250 -2 -373 -153q-127 -150 -127 -406q2 -283 135 -385q64 -55 144 -76q77 -24 161 -24q195 4 303 55v0z" />
    <glyph glyph-name="Ccedilla" unicode="d" horiz-adv-x="1141" 
d="M952 0v1495h-151v-475q-103 10 -189 10q-512 -6 -522 -567q-2 -471 375 -481q256 6 350 241l4 -2q-18 -110 -18 -221h151zM801 526q0 -143 -74 -276q-37 -62 -94 -101q-58 -40 -135 -40q-248 6 -246 366q8 440 348 434q98 0 201 -24v-359z" />
    <glyph glyph-name="Eacute" unicode="e" 
d="M934 616q0 174 -92 297q-95 121 -305 123q-213 -2 -328 -149q-119 -148 -119 -383q2 -524 471 -522q193 2 336 61l-14 131v0q-125 -63 -295 -65q-346 -7 -338 432h680q4 47 4 75v0zM774 655h-516q21 123 92 195q70 69 178 69q119 -2 185 -71q63 -72 61 -193v0z" />
    <glyph glyph-name="Ntilde" unicode="f" horiz-adv-x="713" 
d="M788 1487q-81 18 -168 18q-380 2 -384 -416v-71h-222v-121h222v-897h153v897h301v121h-301v76q-2 288 225 286q82 0 160 -22z" />
    <glyph glyph-name="Odieresis" unicode="g" horiz-adv-x="1139" 
d="M1046 -160q-2 281 -342 287h-198q-187 -2 -184 86q0 59 75 92q62 -14 140 -14q221 2 331 112q111 105 111 271q-2 149 -98 223h184v121h-346q-74 18 -154 18q-207 -2 -323 -117q-119 -112 -119 -276q0 -201 151 -295q-112 -55 -112 -166q2 -100 102 -147
q-72 -37 -123 -105q-53 -69 -53 -165q2 -144 117 -222q112 -77 307 -77q240 2 385 108q147 102 149 266v0zM825 659q-6 -251 -276 -254q-268 0 -273 254q0 117 76 187q72 69 205 71q264 -4 268 -258v0zM893 -180q-6 -221 -354 -230q-129 0 -211 54q-84 49 -86 147
q2 133 145 205q31 -2 66 -2h208q232 -2 232 -174v0z" />
    <glyph glyph-name="Udieresis" unicode="h" horiz-adv-x="1182" 
d="M995 0v711q2 139 -63 231q-68 94 -242 96q-268 -6 -362 -245l-4 2q16 90 16 202v498h-154v-1495h154v489q0 187 88 304q86 116 223 118q111 0 152 -65q39 -66 39 -187v-659h153z" />
    <glyph glyph-name="aacute" unicode="i" horiz-adv-x="526" 
d="M371 1307q-2 45 -31 75q-31 29 -76 29t-74 -29q-32 -30 -32 -75q0 -46 32 -74q29 -31 74 -31t76 31q29 28 31 74v0zM340 0v1018h-154v-1018h154z" />
    <glyph glyph-name="agrave" unicode="j" horiz-adv-x="541" 
d="M385 1307q0 45 -29 75q-30 29 -77 29q-43 0 -72 -29q-33 -30 -33 -75q0 -46 33 -74q29 -31 72 -31q47 0 77 31q29 28 29 74v0zM356 -129v1147h-153v-1157q0 -146 -35 -201q-37 -55 -139 -55q-70 2 -131 24l-15 -135q66 -18 137 -18q191 0 267 98q71 94 69 297v0z" />
    <glyph glyph-name="acircumflex" unicode="k" horiz-adv-x="987" 
d="M940 0l-436 555l405 463h-186l-383 -457v0v934h-154v-1495h154v534v0l401 -534h199z" />
    <glyph glyph-name="adieresis" unicode="l" horiz-adv-x="526" 
d="M340 0v1495h-154v-1495h154z" />
    <glyph glyph-name="atilde" unicode="m" horiz-adv-x="1810" 
d="M1624 0v707q-4 333 -301 331q-76 0 -135 -22q-62 -25 -105 -62q-88 -80 -114 -159v0q2 67 -56 151q-30 41 -86 66q-55 26 -143 26q-262 -6 -358 -248l-4 3q16 110 16 225h-152v-1018h154v485q2 191 90 308q86 116 215 118q115 -2 152 -71q20 -33 28 -80q4 -47 4 -101
v-659h152v485q2 201 96 314q88 112 209 112q109 -2 150 -67q34 -68 34 -187v-657h154z" />
    <glyph glyph-name="aring" unicode="n" horiz-adv-x="1182" 
d="M995 0v711q2 139 -63 231q-68 94 -242 96q-272 -6 -364 -248l-4 3q16 110 16 225h-152v-1018h154v489q0 187 88 304q86 116 223 118q111 0 152 -65q39 -66 39 -187v-659h153z" />
    <glyph glyph-name="ccedilla" unicode="o" horiz-adv-x="1110" 
d="M1022 526q-2 277 -131 398q-127 114 -320 112q-229 -4 -356 -155q-129 -154 -129 -377q10 -524 448 -522q230 4 359 159q127 154 129 385v0zM862 516q-2 -207 -90 -305q-90 -100 -215 -98q-309 2 -311 403q2 205 96 301q90 92 215 92q305 -6 305 -393v0z" />
    <glyph glyph-name="eacute" unicode="p" horiz-adv-x="1143" 
d="M1049 555q-5 479 -375 481q-252 -6 -348 -241l-4 2q16 108 16 221h-152v-1528h154v512q92 -14 188 -14q510 6 521 567v0zM887 543q-8 -441 -348 -434q-111 0 -199 26v356q0 146 76 277q37 63 96 102q55 39 131 39q246 -6 244 -366v0z" />
    <glyph glyph-name="egrave" unicode="q" horiz-adv-x="1143" 
d="M956 -510v1513q-157 29 -331 29q-521 -6 -531 -571q4 -477 377 -479q248 6 342 239h4q-16 -102 -14 -176v-555h153zM803 528q0 -143 -74 -276q-37 -62 -94 -100q-58 -43 -135 -43q-246 6 -244 366q8 442 348 436q98 0 199 -24v-359z" />
    <glyph glyph-name="ecircumflex" unicode="r" horiz-adv-x="725" 
d="M672 885l6 151q-158 15 -244 -71q-88 -86 -117 -205l-2 2q23 143 23 256h-152v-1018h154v408q-2 522 332 477v0z" />
    <glyph glyph-name="edieresis" unicode="s" horiz-adv-x="876" 
d="M766 303q0 68 -19 113q-22 43 -57 71q-35 31 -78 50q-45 18 -94 30q-47 17 -90 31t-80 33q-35 20 -57 51q-23 29 -23 72q0 157 223 161q107 0 211 -34l5 133q-99 20 -199 22q-193 -2 -295 -84t-102 -215q0 -67 22 -110q23 -45 57 -76q37 -29 80 -47q43 -21 90 -35
q48 -12 93 -27q43 -14 77 -34q35 -19 58 -50q18 -30 18 -75q-2 -80 -67 -125q-70 -47 -183 -47q-125 0 -227 32l-4 -141q96 -18 215 -20q201 2 313 94q113 90 113 227v0z" />
    <glyph glyph-name="iacute" unicode="t" horiz-adv-x="758" 
d="M678 4v133q-66 -18 -146 -18q-88 -2 -120 47q-35 49 -33 182v549h299v121h-299v381v0l-154 -43v-338h-221v-121h221v-612q-2 -156 58 -230q55 -71 206 -71q103 2 189 20v0z" />
    <glyph glyph-name="igrave" unicode="u" horiz-adv-x="1182" 
d="M995 0v1018h-153v-490q-2 -184 -86 -301q-84 -118 -226 -121q-108 0 -149 68q-41 66 -41 184v660h-154v-711q-2 -139 66 -231q67 -94 239 -96q138 2 230 69q92 66 135 178l4 -2q-16 -108 -16 -225h151z" />
    <glyph glyph-name="icircumflex" unicode="v" horiz-adv-x="979" 
d="M958 1018h-168l-243 -672q-31 -86 -56 -172h-2q-26 88 -57 180l-237 664h-175l385 -1018h160z" />
    <glyph glyph-name="idieresis" unicode="w" horiz-adv-x="1622" 
d="M1583 1018h-164l-182 -608q-43 -144 -70 -250h-4q-18 82 -74 254l-196 604h-174l-195 -606q-39 -125 -69 -250h-2q-27 110 -70 250l-174 606h-172l315 -1018h178l187 596q41 127 73 256h3q26 -100 57 -195l223 -657h178z" />
    <glyph glyph-name="ntilde" unicode="x" horiz-adv-x="1055" 
d="M1003 0l-380 516l364 502h-176l-279 -402v0l-272 402h-190l364 -508l-385 -510h191l280 410v0l281 -410h202z" />
    <glyph glyph-name="oacute" unicode="y" horiz-adv-x="965" 
d="M944 1018h-168l-182 -516q-68 -193 -103 -310h-2q-30 109 -77 242l-213 584h-176l389 -1018l-47 -121q-56 -155 -115 -215q-60 -59 -150 -57q-65 0 -127 20l-16 -141q68 -10 129 -10q164 0 256 92q92 96 176 326z" />
    <glyph glyph-name="ograve" unicode="z" horiz-adv-x="913" 
d="M805 0v141h-230q-174 0 -294 -4l514 774v107h-684v-137h219q182 0 288 4l-518 -776v-109h705z" />
    <glyph glyph-name="ocircumflex" unicode="{" horiz-adv-x="682" 
d="M614 -401v118q-106 0 -147 56q-45 57 -43 196v387q0 258 -191 295v2q191 39 191 291v262q-2 144 43 199q41 53 147 53v117h-34q-168 -2 -234 -109q-65 -104 -63 -266v-266q0 -119 -45 -166q-50 -49 -177 -55v-123q125 -4 175 -56q47 -53 47 -167v-392q-9 -374 297 -376
h34z" />
    <glyph glyph-name="odieresis" unicode="|" horiz-adv-x="573" 
d="M346 -512v2048h-121v-2048h121z" />
    <glyph glyph-name="otilde" unicode="}" horiz-adv-x="674" 
d="M635 590v123q-127 6 -174 55q-49 49 -47 176v256q2 162 -62 266q-67 107 -237 109h-35v-117q108 0 153 -53q39 -55 39 -199v-272q0 -119 47 -191q46 -73 144 -90v-2q-191 -37 -191 -295v-387q0 -139 -39 -196q-45 -56 -153 -56v-118h35q305 2 299 376v392q-2 114 49 167
q51 52 172 56v0z" />
    <glyph glyph-name="uacute" unicode="~" horiz-adv-x="1192" 
d="M1081 547l-55 106v0q-43 -39 -96 -65q-56 -31 -109 -31q-63 0 -112 25q-52 20 -99 45q-45 26 -100 45q-57 20 -135 20q-84 -2 -150 -35q-67 -32 -114 -75l51 -109v0q35 33 86 59q49 27 114 27q58 0 109 -20q49 -19 98 -45q49 -25 107 -46q57 -24 133 -24q80 0 151 37
q68 33 121 86v0z" />
    <glyph glyph-name="uni00A0" unicode="&#xa0;" horiz-adv-x="819" 
 />
    <glyph glyph-name="fl" unicode="&#xa1;" horiz-adv-x="614" 
d="M414 930q0 47 -29 78q-33 28 -80 30q-47 -2 -78 -30q-32 -31 -32 -78q0 -43 32 -76q31 -33 78 -33t80 33q29 33 29 76v0zM393 -420l-26 1112h-127l-25 -1112h178z" />
    <glyph glyph-name="questiondown" unicode="&#xa2;" horiz-adv-x="934" 
d="M848 139l-12 137v0q-107 -63 -250 -65q-185 2 -260 108q-78 103 -76 252q6 359 338 365q137 0 241 -53v0l13 135q-111 43 -226 45v180h-122v-188q-189 -27 -295 -158q-109 -131 -109 -334q4 -442 404 -481v-221h122v221q138 14 232 57v0z" />
    <glyph glyph-name="exclamdown" unicode="&#xa3;" horiz-adv-x="1018" 
d="M885 0v137h-402q-102 -2 -172 -10q109 90 160 184q49 92 49 226q0 63 -10 157h295v119h-307q-23 176 -25 281q-2 223 203 229q69 0 153 -19l9 127q-82 17 -160 17q-354 8 -356 -371q2 -119 22 -264h-221v-119h235q13 -135 13 -176q0 -123 -62 -217q-61 -92 -188 -186
v-115h764z" />
    <glyph glyph-name="breve" unicode="&#xa4;" horiz-adv-x="1139" 
d="M952 -96v1099q-157 29 -332 29q-520 -6 -530 -569q4 -479 377 -481q248 6 344 241l4 -2q-16 -80 -14 -188v-90q0 -185 -90 -258q-91 -74 -258 -74q-156 2 -295 55v0l-13 -155q121 -35 291 -37q162 2 266 43q101 41 156 106q55 66 76 142q12 36 16 73q2 35 2 66v0z
M801 528q0 -143 -74 -276q-37 -62 -94 -100q-58 -43 -135 -43q-248 6 -246 366q8 440 348 434q98 0 201 -22v-359z" />
    <glyph glyph-name="quotedblleft" unicode="&#xa5;" horiz-adv-x="1204" 
d="M1122 1382h-166l-229 -465q-70 -133 -121 -274h-4q-43 121 -106 252l-234 487h-172l395 -800h-307v-109h346v-151h-346v-111h346v-211h156v211h344v111h-344v151h344v109h-307z" />
    <glyph glyph-name="logicalnot" unicode="&#xa7;" horiz-adv-x="997" 
d="M833 438q-2 121 -67 228q-68 104 -154 198q-86 96 -151 185q-31 43 -49 86q-21 40 -21 79q-2 174 174 179q70 0 133 -19l13 131q-60 15 -138 15q-174 -3 -258 -93q-86 -90 -86 -223q0 -47 19 -96q16 -49 41 -88q-56 -45 -94 -117q-39 -72 -39 -160q2 -116 71 -221
q68 -104 154 -200q88 -95 156 -183q65 -88 67 -174q0 -78 -43 -127q-45 -51 -143 -53q-80 2 -146 25l-14 -140q66 -14 147 -16q189 4 277 102q84 95 84 213q0 56 -19 109q-18 51 -45 88q127 100 131 272v0zM688 422q0 -47 -16 -90q-19 -45 -47 -68q-146 166 -234 283
q-90 114 -90 213q0 110 66 162v0q55 -74 114 -138q56 -63 103 -125q47 -61 75 -118q29 -58 29 -119v0z" />
    <glyph glyph-name="nonbreakingspace" unicode="&#xa8;" horiz-adv-x="1118" 
d="M833 1345q-4 93 -98 97q-94 -4 -98 -97q4 -94 98 -98q94 4 98 98v0zM448 1345q-4 93 -98 97q-94 -4 -98 -97q4 -94 98 -98q94 4 98 98v0z" />
    <glyph glyph-name="guillemotleft" unicode="&#xa9;" horiz-adv-x="1542" 
d="M768 1366q-289 -4 -481 -199q-199 -190 -203 -483q2 -289 197 -479q190 -195 487 -199q291 4 483 201q195 192 199 481q-4 293 -199 483q-190 191 -483 195v0zM768 1247q240 -4 395 -166q158 -159 162 -397q-4 -236 -162 -393q-155 -164 -395 -166q-236 2 -393 166
q-162 160 -164 397q2 240 164 397q157 158 393 162v0zM969 358l-15 109q-75 -31 -168 -31q-204 2 -202 246q0 113 47 186q49 74 164 76q86 0 153 -33l12 115q-67 23 -157 25q-195 -5 -275 -113q-84 -109 -82 -262q-2 -154 76 -250q76 -100 246 -102q108 0 201 34v0z" />
    <glyph glyph-name="Ydieresis" unicode="&#xaa;" horiz-adv-x="780" 
d="M637 719q-2 28 -2 178q0 90 2 276q0 91 -51 156q-27 33 -76 51q-49 17 -123 17q-137 0 -242 -41l11 -121v0q92 51 213 53q90 -2 114 -45q23 -43 23 -88v-39q-395 -6 -400 -244q0 -73 50 -120q49 -50 149 -50q72 0 129 41q57 39 78 88l4 -2q-12 -59 -12 -110h133z
M506 1005q0 -49 -39 -118q-21 -31 -53 -51q-33 -25 -82 -25q-94 2 -94 82q0 61 63 96q64 35 205 35v-19z" />
    <glyph glyph-name="Acircumflex" unicode="&#xab;" horiz-adv-x="1022" 
d="M473 793l-113 69v0l-239 -360l233 -355v0l117 72l-197 285zM864 790l-112 70v0l-258 -358l251 -353v0l115 72l-213 283z" />
    <glyph glyph-name="daggerdbl" unicode="&#xac;" horiz-adv-x="1059" 
d="M954 147v455h-876v-127h743v-328h133z" />
    <glyph glyph-name="uni00AD" unicode="&#xad;" horiz-adv-x="446" 
d="M573 448v123h-475v-123h475z" />
    <glyph glyph-name="Delta" unicode="&#xae;" horiz-adv-x="1151" 
d="M760 854l-94 149q-27 43 -43 64q114 16 116 137q0 57 -35 88q-38 33 -122 33h-152v-471h90v203h6l121 -203h113zM645 1192q0 -29 -20 -51q-21 -25 -74 -25h-31v137h47q80 0 78 -61v0zM575 1423q142 -2 234 -100q94 -96 96 -240q-2 -141 -96 -233q-92 -98 -234 -100
q-141 2 -233 104q-96 96 -98 235q2 142 98 238q92 94 233 96v0zM575 1524q-186 -2 -311 -125q-127 -125 -129 -312q2 -188 129 -309q121 -127 311 -129q185 2 310 131q127 125 129 307q-2 191 -125 312q-125 123 -314 125v0z" />
    <glyph glyph-name="Gbreve" unicode="&#xaf;" horiz-adv-x="821" 
d="M635 1276v117h-455v-117h455z" />
    <glyph glyph-name="oslash" unicode="&#xb0;" horiz-adv-x="760" 
d="M637 1257q0 105 -62 176q-63 72 -194 74q-102 0 -180 -65q-80 -68 -82 -189q4 -243 250 -248q106 0 186 70q80 66 82 182v0zM512 1255q-2 -65 -37 -102q-37 -43 -100 -43q-60 0 -94 39q-37 39 -37 106q0 68 39 109q39 39 94 39q80 -2 108 -49q27 -45 27 -99v0z" />
    <glyph glyph-name="oe" unicode="&#xb1;" horiz-adv-x="1163" 
d="M1071 565v129h-416v418h-145v-418h-416v-129h416v-422h145v422h416zM1061 -113v129h-959v-129h959z" />
    <glyph glyph-name="ellipsis" unicode="&#xb4;" horiz-adv-x="793" 
d="M276 1186l283 207l-84 106v0l-266 -227l67 -86v0z" />
    <glyph glyph-name="quotedblright" unicode="&#xb5;" horiz-adv-x="1270" 
d="M1079 0v1018h-153v-490q0 -178 -82 -297q-82 -122 -240 -125q-262 -2 -262 261v651h-154v-1528h154v352q0 176 -6 230l4 2q27 -35 88 -62q59 -26 145 -28q93 2 156 26q64 23 107 60q43 39 69 82q25 40 35 77l4 -2q-16 -118 -16 -227h151z" />
    <glyph glyph-name="florin" unicode="&#xb6;" horiz-adv-x="1165" 
d="M741 -80h-153v-117h297v1463h147v116h-291v-1462zM588 1382q-203 -2 -322 -121q-121 -120 -123 -305q0 -182 111 -307t334 -129v862z" />
    <glyph glyph-name="scedilla" unicode="&#xb8;" horiz-adv-x="819" 
d="M573 -104h-151q47 -82 31 -162q-19 -80 -119 -158l67 -65v0q158 96 191 194q31 98 -19 191v0z" />
    <glyph glyph-name="fraction" unicode="&#xba;" horiz-adv-x="854" 
d="M739 1063q0 100 -26 168q-27 67 -74 102q-45 37 -98 51q-56 15 -111 15q-143 -2 -233 -97q-91 -94 -93 -247q9 -359 301 -351q150 0 242 101q90 96 92 258v0zM596 1063q-6 -242 -180 -238q-49 0 -82 23q-33 20 -51 51q-19 35 -27 74q-8 41 -8 82q0 61 16 106q17 43 41 70
q51 51 119 51q53 0 86 -16q33 -19 51 -52q21 -30 29 -67q6 -41 6 -84v0z" />
    <glyph glyph-name="Ecircumflex" unicode="&#xbb;" horiz-adv-x="1022" 
d="M549 217l112 -70v0l240 361l-233 354v0l-117 -72l199 -284zM160 219l110 -70v0l258 359l-252 352v0l-114 -72l213 -282z" />
    <glyph glyph-name="fi" unicode="&#xbf;" horiz-adv-x="858" 
d="M604 930q-2 47 -31 78q-30 28 -77 30q-48 -2 -78 -30q-33 -31 -33 -78q0 -43 33 -76q30 -33 78 -33q47 0 77 33q29 33 31 76v0zM694 -289q-172 15 -280 88q-111 70 -113 176q2 88 66 156q28 35 63 68q35 32 66 69q67 72 102 172q31 101 -21 252h-149q45 -145 10 -235
q-37 -92 -108 -162l-68 -68q-35 -32 -63 -73q-64 -78 -66 -195q2 -151 150 -260q145 -107 391 -129z" />
    <glyph glyph-name="Egrave" unicode="&#xc0;" horiz-adv-x="1251" 
d="M1225 0l-514 1382h-170l-514 -1382h161l123 340h615l120 -340h179zM883 465h-529l201 547q37 100 61 200h4q23 -102 62 -202zM670 1497l70 86l-266 227v0l-86 -106l282 -207v0z" />
    <glyph glyph-name="zcaron" unicode="&#xc1;" horiz-adv-x="1251" 
d="M1225 0l-514 1382h-170l-514 -1382h161l123 340h615l120 -340h179zM883 465h-529l201 547q37 100 61 200h4q23 -102 62 -202zM576 1497l283 207l-84 106v0l-266 -227l67 -86v0z" />
    <glyph glyph-name="scaron" unicode="&#xc2;" horiz-adv-x="1251" 
d="M1225 0l-514 1382h-170l-514 -1382h161l123 340h615l120 -340h179zM883 465h-529l201 547q37 100 61 200h4q23 -102 62 -202zM847 1507l72 92l-281 189v0l-268 -195l66 -86v0l200 141v0l211 -141v0z" />
    <glyph glyph-name="Iacute" unicode="&#xc3;" horiz-adv-x="1251" 
d="M1225 0l-514 1382h-170l-514 -1382h161l123 340h615l120 -340h179zM883 465h-529l201 547q37 100 61 200h4q23 -102 62 -202zM970 1624l-39 104v0q-26 -29 -61 -47q-37 -20 -80 -20q-39 0 -70 16q-32 14 -65 33q-31 18 -68 34q-39 13 -90 13q-55 0 -104 -23
q-49 -22 -86 -59l39 -105v0q57 66 137 68q43 0 76 -12q32 -17 63 -35q33 -19 72 -33q37 -16 88 -16q59 0 108 26q50 23 80 56v0z" />
    <glyph glyph-name="ucircumflex" unicode="&#xc4;" horiz-adv-x="1251" 
d="M1225 0l-514 1382h-170l-514 -1382h161l123 340h615l120 -340h179zM883 465h-529l201 547q37 100 61 200h4q23 -102 62 -202zM924 1621q-4 93 -98 97q-94 -4 -98 -97q4 -94 98 -98q94 4 98 98v0zM539 1621q-4 93 -98 97q-94 -4 -98 -97q4 -94 98 -98q94 4 98 98v0z" />
    <glyph glyph-name="udieresis" unicode="&#xc5;" horiz-adv-x="1251" 
d="M1225 0l-514 1382h-170l-514 -1382h161l123 340h615l120 -340h179zM883 465h-529l201 547q37 100 61 200h4q23 -102 62 -202zM862 1575q-2 94 -61 156q-63 57 -160 59q-92 -2 -153 -59q-66 -62 -68 -156q0 -94 66 -153q61 -62 155 -62q95 0 158 66q61 61 63 149v0z
M756 1575q0 -49 -33 -82q-30 -36 -82 -36q-49 0 -82 36q-32 33 -32 82q0 51 32 86q33 33 82 33q52 0 82 -33q33 -35 33 -86v0z" />
    <glyph glyph-name="Atilde" unicode="&#xc6;" horiz-adv-x="1595" 
d="M1442 0v131h-547v518h506v127h-506v479h526v127h-760l-751 -1382h164l186 346h481v-346h701zM741 471h-419l274 504q98 184 139 274h6v-778z" />
    <glyph glyph-name="dagger" unicode="&#xc7;" horiz-adv-x="1208" 
d="M1108 57l-16 140v0q-148 -72 -326 -74q-500 6 -496 561q-2 244 113 408q113 165 362 169q160 0 330 -53v0l17 146q-156 39 -320 41q-350 -5 -512 -211q-162 -203 -160 -525q-4 -659 625 -675q219 2 383 73v0zM778 -104h-151q47 -82 31 -162q-19 -80 -119 -158l67 -65v0
q158 96 191 194q31 98 -19 191v0z" />
    <glyph glyph-name="Eth" unicode="&#xc8;" 
d="M883 0v131h-539v518h512v127h-512v479h539v127h-697v-1382h697zM585 1497l70 86l-266 227v0l-86 -106l282 -207v0z" />
    <glyph glyph-name="degree" unicode="&#xc9;" 
d="M883 0v131h-539v518h512v127h-512v479h539v127h-697v-1382h697zM481 1497l283 207l-84 106v0l-266 -227l67 -86v0z" />
    <glyph glyph-name="Zcaron" unicode="&#xca;" 
d="M883 0v131h-539v518h512v127h-512v479h539v127h-697v-1382h697zM734 1507l72 92l-281 189v0l-268 -195l66 -86v0l200 141v0l211 -141v0z" />
    <glyph glyph-name="brokenbar" unicode="&#xcb;" 
d="M883 0v131h-539v518h512v127h-512v479h539v127h-697v-1382h697zM813 1621q-4 93 -98 97q-94 -4 -98 -97q4 -94 98 -98q94 4 98 98v0zM428 1621q-4 93 -98 97q-94 -4 -98 -97q4 -94 98 -98q94 4 98 98v0z" />
    <glyph glyph-name="Thorn" unicode="&#xcc;" horiz-adv-x="530" 
d="M344 0v1382h-158v-1382h158zM326 1497l69 86l-266 227v0l-86 -108l283 -205v0z" />
    <glyph glyph-name="eth" unicode="&#xcd;" horiz-adv-x="530" 
d="M344 0v1382h-158v-1382h158zM197 1497l282 207l-84 104v0l-266 -225l68 -86v0z" />
    <glyph glyph-name="Yacute" unicode="&#xce;" horiz-adv-x="530" 
d="M344 0v1382h-158v-1382h158zM475 1505l70 92l-279 191v0l-268 -195l63 -88v0l203 144v0l211 -144v0z" />
    <glyph glyph-name="yacute" unicode="&#xcf;" horiz-adv-x="530" 
d="M344 0v1382h-158v-1382h158zM553 1622q-4 92 -98 96q-41 0 -68 -26q-31 -29 -31 -70t31 -68q27 -30 68 -30q94 4 98 98v0zM168 1622q-4 92 -98 96q-93 -4 -97 -96q4 -94 97 -98q94 4 98 98v0z" />
    <glyph glyph-name="cent" unicode="&#xd1;" horiz-adv-x="1456" 
d="M1270 0v1382h-154v-379q0 -456 14 -813v0q-79 148 -170 295l-565 897h-209v-1382h154v424q-2 450 -12 776v0q34 -68 73 -135q39 -70 84 -148l576 -917h209zM1059 1624l-39 104v0q-26 -29 -61 -47q-37 -20 -80 -20q-39 0 -70 16q-32 14 -65 33q-31 18 -68 34
q-39 13 -90 13q-55 0 -104 -23q-49 -22 -86 -59l39 -105v0q57 66 137 68q43 0 76 -12q32 -17 63 -35q33 -19 72 -33q37 -16 88 -16q59 0 108 26q50 23 80 56v0z" />
    <glyph glyph-name="onesuperior" unicode="&#xd2;" horiz-adv-x="1444" 
d="M1352 707q-13 686 -611 694q-274 0 -456 -187q-189 -186 -193 -538q0 -318 154 -502q149 -190 458 -192q275 2 459 190q184 186 189 535v0zM1184 682q-4 -274 -140 -418q-135 -145 -323 -145q-234 2 -346 166q-115 157 -115 419q2 275 141 418q133 144 320 144
q457 -9 463 -584v0zM783 1497l70 86l-266 227v0l-86 -106l282 -207v0z" />
    <glyph glyph-name="thorn" unicode="&#xd3;" horiz-adv-x="1444" 
d="M1352 707q-13 686 -611 694q-274 0 -456 -187q-189 -186 -193 -538q0 -318 154 -502q149 -190 458 -192q275 2 459 190q184 186 189 535v0zM1184 682q-4 -274 -140 -418q-135 -145 -323 -145q-234 2 -346 166q-115 157 -115 419q2 275 141 418q133 144 320 144
q457 -9 463 -584v0zM709 1497l283 207l-84 106v0l-266 -227l67 -86v0z" />
    <glyph glyph-name="minus" unicode="&#xd4;" horiz-adv-x="1444" 
d="M1352 707q-13 686 -611 694q-274 0 -456 -187q-189 -186 -193 -538q0 -318 154 -502q149 -190 458 -192q275 2 459 190q184 186 189 535v0zM1184 682q-4 -274 -140 -418q-135 -145 -323 -145q-234 2 -346 166q-115 157 -115 419q2 275 141 418q133 144 320 144
q457 -9 463 -584v0zM950 1507l72 92l-281 189v0l-268 -195l66 -86v0l200 141v0l211 -141v0z" />
    <glyph glyph-name="Icircumflex" unicode="&#xd5;" horiz-adv-x="1444" 
d="M1352 707q-13 686 -611 694q-274 0 -456 -187q-189 -186 -193 -538q0 -318 154 -502q149 -190 458 -192q275 2 459 190q184 186 189 535v0zM1184 682q-4 -274 -140 -418q-135 -145 -323 -145q-234 2 -346 166q-115 157 -115 419q2 275 141 418q133 144 320 144
q457 -9 463 -584v0zM1065 1626l-39 104v0q-26 -29 -61 -47q-37 -20 -80 -20q-39 0 -70 16q-32 14 -65 33q-31 18 -68 34q-39 13 -90 13q-55 0 -104 -23q-49 -22 -86 -59l39 -105v0q57 66 137 68q43 0 76 -12q32 -17 63 -35q33 -19 72 -33q37 -16 88 -16q59 0 108 26
q50 23 80 56v0z" />
    <glyph glyph-name="sterling" unicode="&#xd6;" horiz-adv-x="1444" 
d="M1352 707q-13 686 -611 694q-274 0 -456 -187q-189 -186 -193 -538q0 -318 154 -502q149 -190 458 -192q275 2 459 190q184 186 189 535v0zM1184 682q-4 -274 -140 -418q-135 -145 -323 -145q-234 2 -346 166q-115 157 -115 419q2 275 141 418q133 144 320 144
q457 -9 463 -584v0zM1020 1621q-4 93 -98 97q-94 -4 -98 -97q4 -94 98 -98q94 4 98 98v0zM635 1621q-4 93 -98 97q-94 -4 -98 -97q4 -94 98 -98q94 4 98 98v0z" />
    <glyph glyph-name="Otilde" unicode="&#xd8;" horiz-adv-x="1444" 
d="M1347 698q-4 506 -331 647l71 197l-118 41v0l-74 -199q-74 17 -162 17q-272 0 -454 -187q-187 -186 -189 -534q0 -221 76 -387q74 -168 235 -250l-77 -213l118 -41v0l80 213q78 -20 172 -20q287 2 467 188q182 182 186 528v0zM1184 678q-2 -270 -131 -414
q-129 -143 -334 -147q-74 -2 -150 20l391 1061v0q224 -141 224 -520v0zM848 1247l-393 -1057v0q-207 154 -203 508q2 271 135 416q129 143 311 147q82 5 150 -14v0z" />
    <glyph glyph-name="onehalf" unicode="&#xd9;" horiz-adv-x="1427" 
d="M1241 524v858h-154v-870q0 -219 -92 -311q-96 -92 -286 -90q-111 0 -181 30q-73 29 -112 78q-19 25 -31 55q-14 29 -25 60q-8 33 -12 69v37q-4 15 -4 33v909h-158v-923q0 -90 21 -174q20 -84 76 -152q55 -67 155 -108q101 -41 258 -43q543 4 545 542v0zM776 1497l70 86
l-266 227v0l-86 -106l282 -207v0z" />
    <glyph glyph-name="twosuperior" unicode="&#xda;" horiz-adv-x="1427" 
d="M1241 524v858h-154v-870q0 -219 -92 -311q-96 -92 -286 -90q-111 0 -181 30q-73 29 -112 78q-19 25 -31 55q-14 29 -25 60q-8 33 -12 69v37q-4 15 -4 33v909h-158v-923q0 -90 21 -174q20 -84 76 -152q55 -67 155 -108q101 -41 258 -43q543 4 545 542v0zM666 1497l283 207
l-84 106v0l-266 -227l67 -86v0z" />
    <glyph glyph-name="threesuperior" unicode="&#xdb;" horiz-adv-x="1427" 
d="M1241 524v858h-154v-870q0 -219 -92 -311q-96 -92 -286 -90q-111 0 -181 30q-73 29 -112 78q-19 25 -31 55q-14 29 -25 60q-8 33 -12 69v37q-4 15 -4 33v909h-158v-923q0 -90 21 -174q20 -84 76 -152q55 -67 155 -108q101 -41 258 -43q543 4 545 542v0zM923 1507l72 92
l-281 189v0l-268 -195l66 -86v0l200 141v0l211 -141v0z" />
    <glyph glyph-name="section" unicode="&#xdc;" horiz-adv-x="1427" 
d="M1241 524v858h-154v-870q0 -219 -92 -311q-96 -92 -286 -90q-111 0 -181 30q-73 29 -112 78q-19 25 -31 55q-14 29 -25 60q-8 33 -12 69v37q-4 15 -4 33v909h-158v-923q0 -90 21 -174q20 -84 76 -152q55 -67 155 -108q101 -41 258 -43q543 4 545 542v0zM991 1621
q-4 93 -98 97q-94 -4 -98 -97q4 -94 98 -98q94 4 98 98v0zM606 1621q-4 93 -98 97q-94 -4 -98 -97q4 -94 98 -98q94 4 98 98v0z" />
    <glyph glyph-name="approxequal" unicode="&#xdf;" horiz-adv-x="1202" 
d="M1112 299q-2 119 -63 184q-62 66 -146 107q-37 20 -76 45q-37 20 -67 45q-31 24 -47 57q-21 31 -21 70q2 72 49 112q45 41 103 76q59 35 104 92q43 56 45 158q0 117 -90 191q-90 73 -266 75q-189 0 -318 -108q-131 -113 -133 -375v-1028h154v1038q4 357 287 352
q94 0 151 -38q58 -39 58 -123q-3 -72 -46 -115q-45 -45 -102 -84t-102 -92q-47 -53 -49 -145q2 -117 67 -183q62 -65 141 -106q41 -21 80 -41q37 -23 66 -47q31 -25 47 -58q16 -32 16 -79q0 -70 -55 -117q-57 -53 -186 -53q-103 0 -195 32l-6 -139q82 -18 197 -20
q192 2 296 92q107 86 107 225v0z" />
    <glyph glyph-name="paragraph" unicode="&#xe0;" horiz-adv-x="1065" 
d="M881 0q-5 145 -5 305v399q0 37 -2 72q-2 33 -12 64q-16 61 -59 104q-39 45 -111 70q-69 22 -176 22q-207 -4 -352 -76l14 -135v0q150 88 311 88q131 0 185 -61q47 -62 47 -178v-84q-612 -10 -619 -361q2 -120 80 -182q76 -65 199 -65q133 2 225 69q90 68 129 164h4
q-12 -94 -10 -215h152zM721 461q-2 -137 -80 -242q-82 -110 -219 -113q-74 0 -119 43q-47 41 -47 109q-4 78 90 147q51 35 143 54q93 18 232 18v-16zM586 1186l70 86l-266 227v0l-86 -106l282 -207v0z" />
    <glyph glyph-name="bullet" unicode="&#xe1;" horiz-adv-x="1065" 
d="M881 0q-5 145 -5 305v399q0 37 -2 72q-2 33 -12 64q-16 61 -59 104q-39 45 -111 70q-69 22 -176 22q-207 -4 -352 -76l14 -135v0q150 88 311 88q131 0 185 -61q47 -62 47 -178v-84q-612 -10 -619 -361q2 -120 80 -182q76 -65 199 -65q133 2 225 69q90 68 129 164h4
q-12 -94 -10 -215h152zM721 461q-2 -137 -80 -242q-82 -110 -219 -113q-74 0 -119 43q-47 41 -47 109q-4 78 90 147q51 35 143 54q93 18 232 18v-16zM487 1186l283 207l-84 106v0l-266 -227l67 -86v0z" />
    <glyph glyph-name="germandbls" unicode="&#xe2;" horiz-adv-x="1065" 
d="M881 0q-5 145 -5 305v399q0 37 -2 72q-2 33 -12 64q-16 61 -59 104q-39 45 -111 70q-69 22 -176 22q-207 -4 -352 -76l14 -135v0q150 88 311 88q131 0 185 -61q47 -62 47 -178v-84q-612 -10 -619 -361q2 -120 80 -182q76 -65 199 -65q133 2 225 69q90 68 129 164h4
q-12 -94 -10 -215h152zM721 461q-2 -137 -80 -242q-82 -110 -219 -113q-74 0 -119 43q-47 41 -47 109q-4 78 90 147q51 35 143 54q93 18 232 18v-16zM732 1196l72 92l-281 189v0l-268 -195l66 -86v0l200 141v0l211 -141v0z" />
    <glyph glyph-name="copyright" unicode="&#xe3;" horiz-adv-x="1065" 
d="M881 0q-5 145 -5 305v399q0 37 -2 72q-2 33 -12 64q-16 61 -59 104q-39 45 -111 70q-69 22 -176 22q-207 -4 -352 -76l14 -135v0q150 88 311 88q131 0 185 -61q47 -62 47 -178v-84q-612 -10 -619 -361q2 -120 80 -182q76 -65 199 -65q133 2 225 69q90 68 129 164h4
q-12 -94 -10 -215h152zM721 461q-2 -137 -80 -242q-82 -110 -219 -113q-74 0 -119 43q-47 41 -47 109q-4 78 90 147q51 35 143 54q93 18 232 18v-16zM844 1313l-39 104v0q-26 -29 -61 -47q-37 -20 -80 -20q-39 0 -70 16q-32 14 -65 33q-31 18 -68 34q-39 13 -90 13
q-55 0 -104 -23q-49 -22 -86 -59l39 -105v0q57 66 137 68q43 0 76 -12q32 -17 63 -35q33 -19 72 -33q37 -16 88 -16q59 0 108 26q50 23 80 56v0z" />
    <glyph glyph-name="registered" unicode="&#xe4;" horiz-adv-x="1065" 
d="M881 0q-5 145 -5 305v399q0 37 -2 72q-2 33 -12 64q-16 61 -59 104q-39 45 -111 70q-69 22 -176 22q-207 -4 -352 -76l14 -135v0q150 88 311 88q131 0 185 -61q47 -62 47 -178v-84q-612 -10 -619 -361q2 -120 80 -182q76 -65 199 -65q133 2 225 69q90 68 129 164h4
q-12 -94 -10 -215h152zM721 461q-2 -137 -80 -242q-82 -110 -219 -113q-74 0 -119 43q-47 41 -47 109q-4 78 90 147q51 35 143 54q93 18 232 18v-16zM812 1345q-4 93 -98 97q-94 -4 -98 -97q4 -94 98 -98q94 4 98 98v0zM427 1345q-4 93 -98 97q-94 -4 -98 -97q4 -94 98 -98
q94 4 98 98v0z" />
    <glyph glyph-name="trademark" unicode="&#xe5;" horiz-adv-x="1065" 
d="M881 0q-5 145 -5 305v399q0 37 -2 72q-2 33 -12 64q-16 61 -59 104q-39 45 -111 70q-69 22 -176 22q-207 -4 -352 -76l14 -135v0q150 88 311 88q131 0 185 -61q47 -62 47 -178v-84q-612 -10 -619 -361q2 -120 80 -182q76 -65 199 -65q133 2 225 69q90 68 129 164h4
q-12 -94 -10 -215h152zM721 461q-2 -137 -80 -242q-82 -110 -219 -113q-74 0 -119 43q-47 41 -47 109q-4 78 90 147q51 35 143 54q93 18 232 18v-16zM754 1353q-2 94 -61 156q-63 57 -160 59q-92 -2 -153 -59q-66 -62 -68 -156q0 -94 66 -153q61 -62 155 -62q95 0 158 66
q61 61 63 149v0zM648 1353q0 -49 -33 -82q-30 -36 -82 -36q-49 0 -82 36q-32 33 -32 82q0 51 32 86q33 33 82 33q52 0 82 -33q33 -35 33 -86v0z" />
    <glyph glyph-name="guilsinglleft" unicode="&#xe6;" horiz-adv-x="1657" 
d="M1558 616q0 174 -92 297q-96 121 -307 123q-113 -2 -197 -49q-86 -47 -133 -121h-2q-82 172 -311 170q-207 -4 -352 -76l14 -135v0q150 88 311 88q129 0 183 -63q49 -64 49 -178v-82q-612 -10 -619 -361q0 -120 78 -182q76 -65 201 -65q149 2 248 77q98 72 141 166h2
q37 -102 137 -170q103 -71 277 -73q192 2 336 61l-15 131v0q-59 -29 -137 -45q-80 -20 -162 -20q-344 -7 -336 432h682q4 47 4 75v0zM1397 655h-516q22 123 94 195q69 69 176 69q119 -2 184 -71q64 -72 62 -193v0zM721 461q-2 -137 -80 -242q-82 -110 -219 -113
q-74 0 -119 43q-47 41 -47 109q-4 78 90 147q51 35 143 54q93 18 232 18v-16z" />
    <glyph glyph-name="acute" unicode="&#xe7;" horiz-adv-x="901" 
d="M833 43l-14 133v0q-110 -57 -256 -57q-180 2 -248 112q-65 109 -63 269q0 186 84 297q80 108 244 110q131 -2 233 -45l16 135q-110 35 -239 35q-250 -2 -373 -153q-127 -150 -127 -406q2 -283 135 -385q64 -55 144 -76q77 -24 161 -24q195 4 303 55v0zM593 -104h-151
q47 -82 31 -162q-19 -80 -119 -158l67 -65v0q158 96 191 194q31 98 -19 191v0z" />
    <glyph glyph-name="notequal" unicode="&#xe8;" 
d="M934 616q0 174 -92 297q-95 121 -305 123q-213 -2 -328 -149q-119 -148 -119 -383q2 -524 471 -522q193 2 336 61l-14 131v0q-125 -63 -295 -65q-346 -7 -338 432h680q4 47 4 75v0zM774 655h-516q21 123 92 195q70 69 178 69q119 -2 185 -71q63 -72 61 -193v0zM588 1186
l70 86l-266 227v0l-86 -106l282 -207v0z" />
    <glyph glyph-name="dieresis" unicode="&#xe9;" 
d="M934 616q0 174 -92 297q-95 121 -305 123q-213 -2 -328 -149q-119 -148 -119 -383q2 -524 471 -522q193 2 336 61l-14 131v0q-125 -63 -295 -65q-346 -7 -338 432h680q4 47 4 75v0zM774 655h-516q21 123 92 195q70 69 178 69q119 -2 185 -71q63 -72 61 -193v0zM498 1186
l283 207l-84 106v0l-266 -227l67 -86v0z" />
    <glyph glyph-name="AE" unicode="&#xea;" 
d="M934 616q0 174 -92 297q-95 121 -305 123q-213 -2 -328 -149q-119 -148 -119 -383q2 -524 471 -522q193 2 336 61l-14 131v0q-125 -63 -295 -65q-346 -7 -338 432h680q4 47 4 75v0zM774 655h-516q21 123 92 195q70 69 178 69q119 -2 185 -71q63 -72 61 -193v0zM748 1196
l72 92l-281 189v0l-268 -195l66 -86v0l200 141v0l211 -141v0z" />
    <glyph glyph-name="Oslash" unicode="&#xeb;" 
d="M934 616q0 174 -92 297q-95 121 -305 123q-213 -2 -328 -149q-119 -148 -119 -383q2 -524 471 -522q193 2 336 61l-14 131v0q-125 -63 -295 -65q-346 -7 -338 432h680q4 47 4 75v0zM774 655h-516q21 123 92 195q70 69 178 69q119 -2 185 -71q63 -72 61 -193v0zM832 1345
q-4 93 -98 97q-94 -4 -98 -97q4 -94 98 -98q94 4 98 98v0zM447 1345q-4 93 -98 97q-94 -4 -98 -97q4 -94 98 -98q94 4 98 98v0z" />
    <glyph glyph-name="plusminus" unicode="&#xec;" horiz-adv-x="526" 
d="M340 0v1018h-154v-1018h154zM334 1186l69 86l-266 227v0l-86 -106l283 -207v0z" />
    <glyph glyph-name="infinity" unicode="&#xed;" horiz-adv-x="526" 
d="M340 0v1018h-154v-1018h154zM188 1186l283 207l-86 106v0l-264 -227l67 -86v0z" />
    <glyph glyph-name="lessequal" unicode="&#xee;" horiz-adv-x="526" 
d="M340 0v1018h-154v-1018h154zM469 1196l72 92l-279 189v0l-270 -195l65 -86v0l201 141v0l211 -141v0z" />
    <glyph glyph-name="greaterequal" unicode="&#xef;" horiz-adv-x="526" 
d="M340 0v1018h-154v-1018h154zM555 1345q-4 93 -98 97q-41 0 -68 -27q-31 -29 -31 -70t31 -67q27 -31 68 -31q94 4 98 98v0zM170 1345q-4 93 -98 97q-92 -4 -97 -97q5 -94 97 -98q94 4 98 98v0z" />
    <glyph glyph-name="yen" unicode="&#xf1;" horiz-adv-x="1182" 
d="M995 0v711q2 139 -63 231q-68 94 -242 96q-272 -6 -364 -248l-4 3q16 110 16 225h-152v-1018h154v489q0 187 88 304q86 116 223 118q111 0 152 -65q39 -66 39 -187v-659h153zM920 1313l-39 104v0q-26 -29 -61 -47q-37 -20 -80 -20q-39 0 -70 16q-32 14 -65 33
q-31 18 -68 34q-39 13 -90 13q-55 0 -104 -23q-49 -22 -86 -59l39 -105v0q57 66 137 68q43 0 76 -12q32 -17 63 -35q33 -19 72 -33q37 -16 88 -16q59 0 108 26q50 23 80 56v0z" />
    <glyph glyph-name="partialdiff" unicode="&#xf2;" horiz-adv-x="1110" 
d="M1022 526q-2 277 -131 398q-127 114 -320 112q-229 -4 -356 -155q-129 -154 -129 -377q10 -524 448 -522q230 4 359 159q127 154 129 385v0zM862 516q-2 -207 -90 -305q-90 -100 -215 -98q-309 2 -311 403q2 205 96 301q90 92 215 92q305 -6 305 -393v0zM628 1186l70 86
l-266 227v0l-86 -106l282 -207v0z" />
    <glyph glyph-name="mu" unicode="&#xf3;" horiz-adv-x="1110" 
d="M1022 526q-2 277 -131 398q-127 114 -320 112q-229 -4 -356 -155q-129 -154 -129 -377q10 -524 448 -522q230 4 359 159q127 154 129 385v0zM862 516q-2 -207 -90 -305q-90 -100 -215 -98q-309 2 -311 403q2 205 96 301q90 92 215 92q305 -6 305 -393v0zM530 1186
l283 207l-84 106v0l-266 -227l67 -86v0z" />
    <glyph glyph-name="summation" unicode="&#xf4;" horiz-adv-x="1110" 
d="M1022 526q-2 277 -131 398q-127 114 -320 112q-229 -4 -356 -155q-129 -154 -129 -377q10 -524 448 -522q230 4 359 159q127 154 129 385v0zM862 516q-2 -207 -90 -305q-90 -100 -215 -98q-309 2 -311 403q2 205 96 301q90 92 215 92q305 -6 305 -393v0zM767 1196l72 92
l-281 189v0l-268 -195l66 -86v0l200 141v0l211 -141v0z" />
    <glyph glyph-name="pi" unicode="&#xf5;" horiz-adv-x="1110" 
d="M1022 526q-2 277 -131 398q-127 114 -320 112q-229 -4 -356 -155q-129 -154 -129 -377q10 -524 448 -522q230 4 359 159q127 154 129 385v0zM862 516q-2 -207 -90 -305q-90 -100 -215 -98q-309 2 -311 403q2 205 96 301q90 92 215 92q305 -6 305 -393v0zM892 1313
l-39 104v0q-26 -29 -61 -47q-37 -20 -80 -20q-39 0 -70 16q-32 14 -65 33q-31 18 -68 34q-39 13 -90 13q-55 0 -104 -23q-49 -22 -86 -59l39 -105v0q57 66 137 68q43 0 76 -12q32 -17 63 -35q33 -19 72 -33q37 -16 88 -16q59 0 108 26q50 23 80 56v0z" />
    <glyph glyph-name="product" unicode="&#xf6;" horiz-adv-x="1110" 
d="M1022 526q-2 277 -131 398q-127 114 -320 112q-229 -4 -356 -155q-129 -154 -129 -377q10 -524 448 -522q230 4 359 159q127 154 129 385v0zM862 516q-2 -207 -90 -305q-90 -100 -215 -98q-309 2 -311 403q2 205 96 301q90 92 215 92q305 -6 305 -393v0zM848 1345
q-4 93 -98 97q-94 -4 -98 -97q4 -94 98 -98q94 4 98 98v0zM463 1345q-4 93 -98 97q-94 -4 -98 -97q4 -94 98 -98q94 4 98 98v0z" />
    <glyph glyph-name="Ugrave" unicode="&#xf7;" horiz-adv-x="1188" 
d="M702 940q0 47 -28 78q-33 28 -80 31q-47 -3 -76 -31q-33 -31 -33 -78t33 -76q29 -33 76 -33t80 33q28 29 28 76v0zM1094 463v131h-1000v-131h1000zM702 115q0 47 -28 77q-33 29 -80 31q-47 -2 -76 -31q-33 -30 -33 -77t33 -78q29 -33 76 -33t80 33q28 31 28 78v0z" />
    <glyph glyph-name="guilsinglright" unicode="&#xf8;" horiz-adv-x="1108" 
d="M1010 524q-2 199 -68 312q-66 112 -172 157l74 191l-107 34v0l-73 -190q-25 4 -50 6q-28 2 -53 2q-229 -4 -354 -155q-129 -150 -129 -377q0 -152 51 -275q51 -120 158 -188l-86 -217l108 -35v0l80 211q64 -18 139 -18q228 4 355 159q125 150 127 383v0zM860 518
q-2 -211 -90 -309q-90 -100 -211 -103q-68 0 -121 21l281 735v0q141 -92 141 -344v0zM616 905l-274 -721v0q-115 107 -115 330q2 217 101 309q45 45 98 70q53 20 106 20q45 0 84 -8v0z" />
    <glyph glyph-name="ordfeminine" unicode="&#xf9;" horiz-adv-x="1182" 
d="M995 0v1018h-153v-490q-2 -184 -86 -301q-84 -118 -226 -121q-108 0 -149 68q-41 66 -41 184v660h-154v-711q-2 -139 66 -231q67 -94 239 -96q138 2 230 69q92 66 135 178l4 -2q-16 -108 -16 -225h151zM653 1186l70 86l-266 227v0l-86 -106l282 -207v0z" />
    <glyph glyph-name="integral" unicode="&#xfa;" horiz-adv-x="1182" 
d="M995 0v1018h-153v-490q-2 -184 -86 -301q-84 -118 -226 -121q-108 0 -149 68q-41 66 -41 184v660h-154v-711q-2 -139 66 -231q67 -94 239 -96q138 2 230 69q92 66 135 178l4 -2q-16 -108 -16 -225h151zM543 1186l283 207l-84 106v0l-266 -227l67 -86v0z" />
    <glyph glyph-name="ordmasculine" unicode="&#xfb;" horiz-adv-x="1182" 
d="M995 0v1018h-153v-490q-2 -184 -86 -301q-84 -118 -226 -121q-108 0 -149 68q-41 66 -41 184v660h-154v-711q-2 -139 66 -231q67 -94 239 -96q138 2 230 69q92 66 135 178l4 -2q-16 -108 -16 -225h151zM794 1196l72 92l-281 189v0l-268 -195l66 -86v0l200 141v0l211 -141
v0z" />
    <glyph glyph-name="Omega" unicode="&#xfc;" horiz-adv-x="1182" 
d="M995 0v1018h-153v-490q-2 -184 -86 -301q-84 -118 -226 -121q-108 0 -149 68q-41 66 -41 184v660h-154v-711q-2 -139 66 -231q67 -94 239 -96q138 2 230 69q92 66 135 178l4 -2q-16 -108 -16 -225h151zM874 1345q-4 93 -98 97q-94 -4 -98 -97q4 -94 98 -98q94 4 98 98v0z
M489 1345q-4 93 -98 97q-94 -4 -98 -97q4 -94 98 -98q94 4 98 98v0z" />
    <glyph glyph-name="circumflex" unicode="&#xff;" horiz-adv-x="965" 
d="M944 1018h-168l-182 -516q-68 -193 -103 -310h-2q-30 109 -77 242l-213 584h-176l389 -1018l-47 -121q-56 -155 -115 -215q-60 -59 -150 -57q-65 0 -127 20l-16 -141q68 -10 129 -10q164 0 256 92q92 96 176 326zM774 1345q-4 93 -98 97q-94 -4 -98 -97q4 -94 98 -98
q94 4 98 98v0zM389 1345q-4 93 -98 97q-94 -4 -98 -97q4 -94 98 -98q94 4 98 98v0z" />
    <glyph glyph-name="glyph170" unicode="&#x131;" horiz-adv-x="526" 
d="M340 0v1018h-154v-1018h154z" />
    <glyph glyph-name="Idieresis" unicode="&#x152;" horiz-adv-x="1714" 
d="M1563 0v131h-539v518h512v127h-512v479h539v127h-568q-57 0 -123 6q-65 5 -139 5q-270 -3 -450 -187q-187 -186 -191 -526q-2 -303 144 -494q145 -192 460 -196q144 8 303 10h564zM870 137q-67 -12 -143 -12q-258 2 -365 170q-106 164 -104 403q2 271 139 416
q133 145 326 147q72 0 147 -12v-1112z" />
    <glyph glyph-name="Igrave" unicode="&#x153;" horiz-adv-x="1796" 
d="M1696 616q0 174 -93 297q-94 121 -305 123q-252 -6 -358 -209v0q-53 109 -152 160q-100 49 -219 49q-229 -4 -354 -153q-129 -150 -129 -377q-2 -223 106 -371q107 -149 342 -153q144 2 238 65q96 64 147 160v0q84 -221 404 -225q192 2 336 61l-10 131v0
q-129 -63 -302 -65q-346 -7 -337 432h682q4 47 4 75v0zM1536 655h-518q20 121 92 193q72 69 180 71q119 -2 184 -71q64 -72 62 -193v0zM862 516q-2 -211 -90 -307q-90 -100 -217 -100q-164 2 -240 118q-75 115 -75 287q2 219 100 311q94 88 211 86q311 -4 311 -395v0z" />
    <glyph glyph-name="tilde" unicode="&#x178;" horiz-adv-x="1079" 
d="M1055 1382h-166l-228 -471q-67 -137 -120 -266h-2q-25 62 -50 123q-26 59 -57 121l-235 493h-172l432 -882v-500h155v502zM830 1621q-4 93 -98 97q-94 -4 -98 -97q4 -94 98 -98q94 4 98 98v0zM445 1621q-4 93 -98 97q-94 -4 -98 -97q4 -94 98 -98q94 4 98 98v0z" />
    <glyph glyph-name="quotesinglbase" unicode="&#x192;" horiz-adv-x="879" 
d="M444 747h289v119h-278l24 273q21 249 209 247q74 0 137 -16l8 129q-73 12 -137 12q-176 0 -264 -88q-88 -92 -108 -309l-25 -248h-217v-119h207l-76 -806q-16 -254 -211 -254q-31 0 -65 4q-37 4 -70 12l-10 -131q75 -12 139 -12q176 0 266 92q88 94 109 321z" />
    <glyph glyph-name="threequarters" unicode="&#x2c6;" horiz-adv-x="893" 
d="M649 1196l72 92l-281 189v0l-268 -195l66 -86v0l200 141v0l211 -141v0z" />
    <glyph glyph-name="Ccaron" unicode="&#x2c7;" horiz-adv-x="893" 
d="M434 1196l270 194l-65 87v0l-201 -144v0l-211 144v0l-71 -93l278 -188v0z" />
    <glyph glyph-name="gbreve" unicode="&#x2d8;" horiz-adv-x="842" 
d="M668 1470h-111q-4 -139 -137 -141q-68 0 -101 43q-36 41 -36 98h-109q0 -104 57 -178q58 -80 187 -82q129 2 190 80q60 76 60 180v0z" />
    <glyph glyph-name="Idotaccent" unicode="&#x2d9;" horiz-adv-x="577" 
d="M393 1343q0 47 -28 76q-31 29 -76 29q-43 0 -72 -29q-33 -31 -33 -76q0 -43 33 -71q29 -31 72 -31q45 0 76 33q28 28 28 69v0z" />
    <glyph glyph-name="Scedilla" unicode="&#x2da;" horiz-adv-x="799" 
d="M620 1339q-2 94 -61 156q-63 57 -160 59q-92 -2 -153 -59q-66 -62 -68 -156q0 -94 66 -153q61 -62 155 -62q95 0 158 66q61 61 63 149v0zM514 1339q0 -49 -33 -82q-30 -36 -82 -36q-49 0 -82 36q-32 33 -32 82q0 51 32 86q33 33 82 33q52 0 82 -33q33 -35 33 -86v0z" />
    <glyph glyph-name="cacute" unicode="&#x2db;" horiz-adv-x="534" 
d="M438 -453v101q-55 -8 -90 -6q-37 4 -57 16q-39 29 -37 86q0 53 25 123q22 67 55 125h-111q-41 -64 -69 -139q-31 -74 -31 -144q-2 -78 43 -125q45 -49 156 -51q65 2 116 14v0z" />
    <glyph glyph-name="onequarter" unicode="&#x2dc;" horiz-adv-x="1038" 
d="M870 1313l-39 104v0q-26 -29 -61 -47q-37 -20 -80 -20q-39 0 -70 16q-32 14 -65 33q-31 18 -68 34q-39 13 -90 13q-55 0 -104 -23q-49 -22 -86 -59l39 -105v0q57 66 137 68q43 0 76 -12q32 -17 63 -35q33 -19 72 -33q37 -16 88 -16q59 0 108 26q50 23 80 56v0z" />
    <glyph glyph-name="lozenge" unicode="&#x3c0;" horiz-adv-x="1378" 
d="M1268 2l-11 119q-53 -19 -114 -19q-78 -4 -101 54q-24 57 -22 247v492h233v123h-1171v-123h233v-895h148v895h409v-625q0 -69 11 -123q8 -55 32 -92q43 -71 172 -71q101 0 181 18v0z" />
    <glyph glyph-name="Oacute" unicode="&#x2013;" horiz-adv-x="1024" 
d="M1024 524v135h-1024v-135h1024z" />
    <glyph glyph-name="Ocircumflex" unicode="&#x2014;" horiz-adv-x="2048" 
d="M2048 524v135h-2048v-135h2048z" />
    <glyph glyph-name="Uacute" unicode="&#x2018;" horiz-adv-x="479" 
d="M326 1530v0q-107 -101 -156 -191t-51 -161q-2 -68 30 -109q29 -43 78 -43q64 2 90 55q25 49 -14 103q-33 41 -16 114q14 72 106 172z" />
    <glyph glyph-name="Ucircumflex" unicode="&#x2019;" horiz-adv-x="479" 
d="M152 1014v0q108 104 159 196q49 90 51 160q3 68 -28 109q-31 38 -84 38q-64 -2 -86 -53q-25 -51 10 -104q35 -39 18 -111q-16 -71 -108 -176z" />
    <glyph glyph-name="Lslash" unicode="&#x201a;" horiz-adv-x="479" 
d="M152 -301v0q108 104 159 197q49 90 51 159q3 68 -28 109q-31 39 -84 39q-64 -2 -86 -54q-25 -51 10 -104q35 -39 18 -111q-16 -71 -108 -176z" />
    <glyph glyph-name="apple" unicode="&#x201c;" horiz-adv-x="846" 
d="M758 1470l-68 60v0q-106 -101 -156 -191q-49 -90 -51 -161q-2 -68 31 -109q29 -43 80 -43q63 2 88 55q22 49 -12 103q-33 41 -17 114q13 72 105 172v0zM393 1470l-67 60v0q-107 -101 -156 -191t-51 -161q-2 -68 30 -109q29 -43 78 -43q64 2 90 55q25 49 -14 103
q-33 41 -16 114q14 72 106 172v0z" />
    <glyph glyph-name="Ograve" unicode="&#x201d;" horiz-adv-x="846" 
d="M152 1014v0q108 104 159 196q49 90 51 160q3 68 -28 109q-31 38 -84 38q-64 -2 -86 -53q-25 -51 10 -104q35 -39 18 -111q-16 -71 -108 -176zM518 1014v0q109 104 160 196q47 90 49 160q2 68 -29 109q-30 38 -84 38q-63 -2 -86 -53q-24 -51 11 -104q32 -39 20 -111
q-14 -71 -111 -176z" />
    <glyph glyph-name="lslash" unicode="&#x201e;" horiz-adv-x="846" 
d="M152 -301v0q108 104 159 197q49 90 51 159q3 68 -28 109q-31 39 -84 39q-64 -2 -86 -54q-25 -51 10 -104q35 -39 18 -111q-16 -71 -108 -176zM518 -301v0q109 104 160 197q47 90 49 159q2 68 -29 109q-30 39 -84 39q-63 -2 -86 -54q-24 -51 11 -104q32 -39 20 -111
q-14 -71 -111 -176z" />
    <glyph glyph-name="ae" unicode="&#x2020;" horiz-adv-x="952" 
d="M864 1010v120h-327l34 365h-190l35 -365h-328v-120h328l-35 -308l47 -706h98l45 706l-34 308h327z" />
    <glyph glyph-name="ogonek" unicode="&#x2021;" horiz-adv-x="952" 
d="M864 385v119h-327l34 258l-34 256h327v119h-327l34 358h-190l35 -358h-328v-119h328l-35 -256l35 -258h-328v-119h328l-35 -385h190l-34 385h327z" />
    <glyph glyph-name="radical" unicode="&#x2022;" horiz-adv-x="883" 
d="M428 821q-94 -2 -158 -65q-65 -64 -67 -160q2 -94 67 -158q64 -65 158 -67q96 2 160 67q63 64 65 158q-2 96 -65 160q-64 63 -160 65v0z" />
    <glyph glyph-name="Aacute" unicode="&#x2026;" horiz-adv-x="1315" 
d="M219 201q-43 0 -76 -29q-32 -33 -32 -80q0 -43 32 -76q33 -30 76 -32q47 2 80 32q29 33 31 76q-2 47 -31 80q-33 29 -80 29v0zM645 201q-43 0 -76 -29q-32 -33 -32 -80q0 -43 32 -76q33 -30 76 -32q47 2 80 32q29 33 29 76q0 47 -29 80q-33 29 -80 29v0zM1071 201
q-47 0 -78 -29q-33 -33 -33 -80q0 -43 33 -76q31 -30 78 -32q47 2 78 32q29 33 31 76q-2 47 -31 80q-31 29 -78 29v0z" />
    <glyph glyph-name="Scaron" unicode="&#x2030;" horiz-adv-x="2109" 
d="M674 1094q-2 172 -78 243q-76 70 -205 70q-123 0 -209 -90q-88 -90 -90 -254q6 -324 279 -318q129 0 215 95q86 90 88 254v0zM537 1079q0 -102 -39 -160q-39 -61 -119 -61q-154 2 -150 219q0 101 41 160q41 57 113 57q158 2 154 -215v0zM1317 322q-2 169 -78 245
q-80 70 -205 70q-123 0 -209 -90q-88 -90 -90 -254q6 -324 277 -318q131 2 217 95q86 90 88 252v0zM1180 309q0 -102 -39 -160q-41 -61 -121 -61q-152 2 -148 219q0 101 41 160q41 57 111 57q160 2 156 -215v0zM1988 322q-2 169 -77 245q-76 70 -205 70q-123 0 -207 -90
q-88 -90 -90 -254q6 -324 276 -318q129 2 215 95q86 90 88 252v0zM1851 309q0 -102 -37 -160q-41 -61 -120 -61q-154 2 -150 219q0 101 41 160q41 57 113 57q157 2 153 -215v0zM281 -45l954 1395l-109 77v0l-954 -1394l109 -78v0z" />
    <glyph glyph-name="dotaccent" unicode="&#x2039;" horiz-adv-x="641" 
d="M483 793l-112 69v0l-250 -360l244 -355v0l114 74l-207 283z" />
    <glyph glyph-name="ring" unicode="&#x203a;" horiz-adv-x="641" 
d="M272 147l250 361l-243 354v0l-117 -72l207 -284l-209 -287l112 -72v0z" />
    <glyph glyph-name="guillemotright" unicode="&#x2122;" horiz-adv-x="1438" 
d="M1321 807l-88 575h-156l-108 -350l-19 -88v0l-22 98l-101 340h-157l-88 -575h112l53 362l7 76v0l24 -94l101 -344h126l105 340l25 98v0l16 -115l47 -323h123zM537 1286v96h-435v-96h158v-479h123v479h154z" />
    <glyph glyph-name="quoteleft" unicode="&#x2202;" horiz-adv-x="1821" 
d="M1728 555q-4 479 -376 481q-250 -4 -349 -246l-4 3q19 88 19 186v500q-166 26 -328 28q-457 -6 -454 -364v-125h-222v-121h222v-897h153v897h297v121h-297v106q-2 260 287 258q92 0 188 -16v-1339q144 -39 340 -39q512 6 524 567v0zM1567 543q-9 -441 -351 -434
q-110 0 -198 26v356q0 146 76 277q36 63 96 102q55 39 131 39q248 -6 246 -366v0z" />
    <glyph glyph-name="perthousand" unicode="&#x2206;" horiz-adv-x="1479" 
d="M1407 0l-588 1433h-168l-579 -1433h1335zM727 1264l455 -1127h-897l442 1127v0z" />
    <glyph glyph-name="divide" unicode="&#x220f;" horiz-adv-x="1202" 
d="M1018 -129v1147h-629v69q-4 289 307 293q123 -2 248 -41l31 129q-127 37 -277 39q-465 -6 -462 -440v-49h-222v-121h222v-897h153v897h475v-1036q0 -146 -33 -201q-36 -55 -139 -55q-74 2 -131 24l-16 -135q67 -18 139 -18q188 0 264 98q72 94 70 297v0z" />
    <glyph glyph-name="quoteright" unicode="&#x2211;" horiz-adv-x="1859" 
d="M1673 0v711q2 139 -63 231q-68 94 -242 96q-268 -6 -363 -245l-4 2q17 90 17 202v482q-166 26 -328 28q-457 -6 -454 -364v-125h-222v-121h222v-897h153v897h297v121h-297v106q-2 260 287 258q92 0 188 -16v-1366h154v489q0 187 88 304q86 116 223 118q109 0 154 -65
q39 -66 39 -187v-659h151z" />
    <glyph glyph-name="macron" unicode="&#x2215;" horiz-adv-x="844" 
d="M104 -244l889 1725l-121 61v0l-888 -1724l120 -62v0z" />
    <glyph glyph-name="caron" unicode="&#x2219;" horiz-adv-x="451" 
d="M225 707q-49 0 -82 -33q-34 -33 -34 -84q0 -47 34 -80q33 -37 82 -37q51 0 84 37q33 33 33 80q0 51 -33 84t-84 33v0z" />
    <glyph glyph-name="periodcentered" unicode="&#x221a;" horiz-adv-x="1239" 
d="M1165 1552h-166l-338 -1169q-14 -55 -28 -111q-15 -57 -31 -116h-4q-35 123 -76 245l-207 617h-313v-119h190l316 -899h176z" />
    <glyph glyph-name="OE" unicode="&#x221e;" horiz-adv-x="1988" 
d="M1861 565q0 135 -88 228q-88 92 -264 94q-131 -2 -258 -74q-129 -72 -250 -166v0q-125 100 -254 170q-129 68 -260 70q-168 -2 -262 -99q-98 -96 -98 -239q0 -133 88 -225q86 -95 264 -97q133 2 262 76q129 70 248 162v0q129 -100 258 -168q127 -70 252 -70
q174 2 268 103q94 96 94 235v0zM1706 555q0 -78 -49 -133q-54 -60 -150 -60q-88 0 -186 60q-98 55 -205 137q105 82 203 137q96 54 178 56q102 -2 156 -56q53 -53 53 -141v0zM874 553q-104 -78 -200 -133q-97 -58 -183 -58q-100 0 -153 56q-53 53 -53 141q0 80 53 135
q49 56 145 58q90 -2 189 -58q96 -57 202 -141v0z" />
    <glyph glyph-name="ydieresis" unicode="&#x222b;" horiz-adv-x="1665" 
d="M864 1366v-1366h154v534v0l401 -534h201l-438 555l405 463h-186l-383 -457v0v918q-166 26 -328 28q-457 -6 -454 -364v-125h-222v-121h222v-897h153v897h297v121h-297v106q-2 260 287 258q92 0 188 -16v0z" />
    <glyph glyph-name="quotedblbase" unicode="&#x2248;" horiz-adv-x="1229" 
d="M1075 670l-51 108v0q-92 -88 -197 -90q-57 0 -102 21q-49 20 -94 45q-45 26 -97 45q-53 16 -126 16q-80 0 -146 -33q-63 -32 -110 -78l49 -108v0q35 31 84 57q49 27 114 29q68 0 115 -16q45 -19 88 -46q45 -22 96 -40q52 -21 123 -21q84 0 148 35q63 33 106 76v0z
M1075 322l-51 108v0q-90 -80 -195 -80q-59 0 -108 21q-49 20 -94 43q-45 26 -97 45q-53 16 -127 16q-79 -2 -143 -35q-65 -32 -108 -73l51 -109v0q35 31 84 57q49 27 112 29q64 0 113 -16q45 -19 88 -45q43 -23 94 -41q51 -21 125 -21q80 0 148 33q65 29 108 68v0z" />
    <glyph glyph-name="Agrave" unicode="&#x2260;" horiz-adv-x="1331" 
d="M1407 1487q-82 18 -166 18q-160 0 -252 -74v0q-151 58 -317 58q-125 0 -209 -35q-86 -35 -135 -94q-25 -27 -39 -62q-19 -34 -31 -71q-22 -78 -22 -158v-51h-222v-121h222v-897h153v897h467v-897h154v897h299v121h-299v76q-5 288 225 286q80 0 158 -22zM903 1315
q-47 -84 -47 -226v-71h-467v71q-4 273 275 275q114 2 239 -49v0z" />
    <glyph glyph-name="endash" unicode="&#x2264;" horiz-adv-x="1823" 
d="M1638 0v1018h-628v69q-5 289 309 293q119 -2 248 -41l30 129q-129 37 -276 39q-109 0 -189 -22q-79 -23 -131 -64v0q-137 66 -329 68q-125 0 -207 -35q-86 -35 -137 -94q-25 -27 -39 -62q-19 -34 -31 -71q-22 -78 -22 -158v-51h-222v-121h222v-897h153v897h467v-897h154
v897h475v-897h153zM913 1313q-32 -56 -45 -119q-12 -66 -12 -127v-49h-467v71q-4 273 275 275q116 2 249 -51v0z" />
    <glyph glyph-name="emdash" unicode="&#x2265;" horiz-adv-x="1823" 
d="M1638 0v1479q-166 26 -327 28q-213 0 -322 -82v0q-133 62 -317 64q-125 0 -207 -35q-86 -35 -137 -94q-25 -27 -39 -62q-19 -34 -31 -71q-22 -78 -22 -158v-51h-222v-121h222v-897h153v897h467v-897h154v897h294v121h-294v106q-2 260 284 258q94 0 191 -16v-1366h153z
M899 1319q-43 -74 -43 -176v-125h-467v71q-4 273 275 275q59 0 116 -8q58 -9 119 -37v0z" />
    <glyph glyph-name="dotlessi" unicode="&#x25ca;" horiz-adv-x="1261" 
d="M1184 686l-512 713h-92l-502 -701l512 -714h96zM620 1231l398 -555l-375 -522v0l-395 548l372 529v0z" />
    <glyph glyph-name="cedilla" unicode="&#xf001;" horiz-adv-x="1204" 
d="M1018 0v1018h-629v69q-4 289 307 293q123 -2 248 -41l31 129q-127 37 -277 39q-465 -6 -462 -440v-49h-222v-121h222v-897h153v897h475v-897h154z" />
    <glyph glyph-name="hungarumlaut" unicode="&#xf002;" horiz-adv-x="1204" 
d="M1018 0v1479q-166 26 -328 28q-457 -6 -454 -364v-125h-222v-121h222v-897h153v897h297v121h-297v106q-2 260 287 258q92 0 188 -16v-1366h154z" />
    <glyph glyph-name="exclam" horiz-adv-x="0" 
 />
    <glyph glyph-name="glyph3" horiz-adv-x="819" 
 />
  </font>
</defs>
</svg>
